<svg xmlns="http://www.w3.org/2000/svg" xmlns:xlink="http://www.w3.org/1999/xlink" viewBox="0 0 500 500"><defs><clipPath id="freepik--clip-path--inject-2"><path d="M382.53,250.2c-.89,3.11-2.27,6-3.23,9.12-29.33-1.78-63.81-3.56-97.8-4.62a30.3,30.3,0,0,0,6.34-4.16c1.42-1.21,2.56-3.11,4.46-3.52,1.05-.23,1.48,1.86,2.53,1.65a1.42,1.42,0,0,0,.79-.68l2.85-4.2a1.08,1.08,0,0,1,.61-.53c.24-.06.51.06.75,0,.53-.15.45-.91.5-1.47a1.92,1.92,0,0,1,1.51-1.67.77.77,0,0,1,.45,0,.82.82,0,0,1,.37.43c.68,1.45.34,3.24,1.14,4.63a8.08,8.08,0,0,1,.52.9c.4,1-.24,4.59,1.06,2.26.89-1.61,1.24-3.59,2.15-5.24a19.41,19.41,0,0,0,.92-2.47,11.53,11.53,0,0,1,1.48-1.69l.18,2.2a1.24,1.24,0,0,0,.17.63c.3.44,1,.36,1.42.68a1.93,1.93,0,0,1,.52,1.37c.07.5.24,1.08.72,1.24.11,0,.24,0,.3.15a.33.33,0,0,1,.05.22,6.93,6.93,0,0,0,.07,1.29c.76-.28,1.72-2.66,2.11-3.52l1.89-4.17a14.85,14.85,0,0,0,1.53-3.78,12.13,12.13,0,0,1,.68-3.45c.13-.28.41-.63.68-.47s.19.34.18.55a13.85,13.85,0,0,0,.31,4.26c.17.62.42,1.21.62,1.82a22.14,22.14,0,0,1,.73,7.17c0,1.68.75,2.81,1.84,1.09a28.66,28.66,0,0,0,1.48-3.73,8.63,8.63,0,0,0,1-3.47,7,7,0,0,1,0-1.65,4.29,4.29,0,0,1,.6-1.26,15,15,0,0,0,2.05-6.69,5.63,5.63,0,0,1,.52-2.63c.23-.37.55-.66.79-1,.7-1.1.35-3.06.74-4.4s.81-2.75,2.09-3.39a.72.72,0,0,1,.51-.1c.26.08.36.37.43.63,1,4.26-.26,8.9,1.23,13,.54,1.48,1.42,3.06.82,4.5a7.56,7.56,0,0,0-.69,1.47c-.25,1.31,1.19,2.23,2.06,3.24a5.78,5.78,0,0,1,1.14,2.25c.11.38.15,2.28.42,2.45,1.2.75,1.35-3.5,1.31-4.14a1.52,1.52,0,0,1,.05-.6,1.75,1.75,0,0,1,.33-.44,5.83,5.83,0,0,0,1.36-2.28c.25-.78.34-1.61.56-2.4a3.58,3.58,0,0,1,1.28-2.06.52.52,0,0,1,.27-.1c.17,0,.28.19.35.35a5.1,5.1,0,0,1,.4,1.68,2.19,2.19,0,0,0,.17.85c.83,1.39,2.07-.09,2.38-.95a4.3,4.3,0,0,0,.15-1.52c0-1.1-.05-2.2-.07-3.31a1.84,1.84,0,0,1,.17-1,3.71,3.71,0,0,1,.69-.68,3.07,3.07,0,0,0,.58-1.12c.68-1.88,1.3-5.66,2.71-7a7.51,7.51,0,0,1,.68,1.46,3.1,3.1,0,0,1,.31,1.3,3.49,3.49,0,0,1-.28,1,4.85,4.85,0,0,0-.33,2.06c.11,1,.7,1.94.86,3,.11.74,0,1.5.05,2.24a42.58,42.58,0,0,0,1.21,6.23c.2.82.62,4.07,1.57,4.42,1.2.27,1.9-2.44,1.85-3.25a2,2,0,0,1,.18-1.4c.29-.36.82-.41,1.17-.71.54-.47.44-1.32.52-2,.12-1,1.44-1.45,2-2.2a20.16,20.16,0,0,0,2-4.28c.93-2.22,2.86-6,2.66-8.4a18.86,18.86,0,0,0,2.62,8.15q1.29-4.9,2.41-9.84c.46-2,.51-5.22,2.4-6.48-.37,2.77,1.7,4.88,1.8,7.56.07,1.86-1,3.72-.52,5.51.35,1.23,1.43,2.18,1.7,3.44s-.26,2.47.17,3.59a2.69,2.69,0,0,0,.28.53,8.72,8.72,0,0,0,1.17,1.27,12.5,12.5,0,0,1,3.52,6.95C382.4,244.54,383.61,246.36,382.53,250.2Z" style="fill:#92E3A9;stroke:#263238;stroke-linecap:round;stroke-linejoin:round"></path></clipPath><clipPath id="freepik--clip-path-2--inject-2"><path d="M217.93,253.75c-45.48.11-87.15,1.37-118.3,2.65l-1.45,0c-3.37-.1-6.75-.12-10.13-.11s-4.6.34-5.34-3.19c-.49-2.33,1.61-4.33,2.38-6.58.93-2.72-.09-5.86,1.06-8.49.39-.91,1-1.7,1.41-2.62.67-1.59.53-3.39.75-5.1.31-2.43,1.35-4.7,2-7,1.24-4.17,1.38-8.58,1.94-12.89.49-3.78,1.3-7.51,2.11-11.24q1.27-5.87,2.56-11.74c1.18,4.2,2.83,8,3.87,12.29.13.56,2.08,8.12,2.54,8.12-1.1.63-1.29,2.24-.82,3.43s3.53,7.82,4.64,8.27c2.73,1.11,4.58-2.29,6.61-3.68a9,9,0,0,0,1.39-1,2.71,2.71,0,0,0,.36-.46c.64-1,.37-2.39.83-3.51s1.73-1.92,2.3-3.07c.83-1.66.08-3.69.49-5.51.58-2.62,3-4.31,3.15-7.1,1.63,1.58,1.1,4.71,1.18,6.8q.19,5.07.57,10.12a19,19,0,0,0,4.07-7.54c-.64,2.37.57,6.4,1.07,8.75a20.38,20.38,0,0,0,1.2,4.57c.42.84,1.64,1.5,1.57,2.53,0,.72-.31,1.53.14,2.09.29.36.8.51,1,.91a2,2,0,0,1-.07,1.41c-.19.79,0,3.58,1.23,3.53,1-.16,2-3.29,2.35-4.05a42.48,42.48,0,0,0,2.32-5.9c.2-.73.22-1.49.46-2.2.34-1,1.09-1.76,1.38-2.75a4.61,4.61,0,0,0,0-2.09,3.92,3.92,0,0,1-.09-1,3.17,3.17,0,0,1,.55-1.23,6.88,6.88,0,0,1,.93-1.31c1.14,1.59,1.06,5.41,1.38,7.39a3.24,3.24,0,0,0,.37,1.2,5.25,5.25,0,0,1,.56.8,1.9,1.9,0,0,1,0,1c-.23,1.08-.45,2.16-.67,3.24a4.12,4.12,0,0,0-.13,1.52c.14.9,1.09,2.58,2.16,1.36a1.88,1.88,0,0,0,.32-.8,5.54,5.54,0,0,1,.7-1.57c.1-.15.24-.31.42-.28a.45.45,0,0,1,.24.15,3.56,3.56,0,0,1,.88,2.25c.07.82,0,1.65.11,2.46a6.1,6.1,0,0,0,.92,2.49,1.62,1.62,0,0,1,.25.49,1.54,1.54,0,0,1-.06.6c-.16.62-.78,4.84.53,4.31.29-.12.69-2,.87-2.33a5.85,5.85,0,0,1,1.52-2c1-.84,2.62-1.48,2.62-2.82a7.33,7.33,0,0,0-.41-1.56c-.33-1.53.83-2.93,1.62-4.28,2.22-3.78,1.81-8.58,3.6-12.58.11-.24.27-.51.53-.54a.68.68,0,0,1,.48.19c1.14.87,1.31,2.4,1.44,3.72s-.56,3.25-.07,4.46c.16.39.43.74.58,1.14a5.52,5.52,0,0,1,0,2.68,15.11,15.11,0,0,0,.8,7,4.6,4.6,0,0,1,.37,1.35,7.75,7.75,0,0,1-.29,1.63,8.46,8.46,0,0,0,.35,3.59,27.55,27.55,0,0,0,.76,3.93c.77,1.89,1.73.92,2-.73a22.36,22.36,0,0,1,2-6.92c.31-.56.66-1.1.94-1.68a13.41,13.41,0,0,0,1.08-4.13c0-.2.09-.44.28-.51s.51.29.58.59a11.89,11.89,0,0,1,0,3.52,15.38,15.38,0,0,0,.81,4l1.11,4.45c.22.91.73,3.43,1.43,3.84a6.44,6.44,0,0,0,.3-1.26.37.37,0,0,1,.09-.2c.08-.09.21-.08.32-.1.5-.06.78-.6.94-1.08a1.92,1.92,0,0,1,.76-1.25c.48-.24,1.15,0,1.52-.41a1.29,1.29,0,0,0,.28-.59c.19-.71.39-1.42.58-2.13a12.1,12.1,0,0,1,1.15,1.93,18.14,18.14,0,0,0,.45,2.6c.6,1.79.57,3.8,1.16,5.54.85,2.53.88-1.14,1.45-2a10.13,10.13,0,0,1,.68-.79c1-1.21,1-3,2-4.34a.91.91,0,0,1,.44-.36.78.78,0,0,1,.45.06,1.91,1.91,0,0,1,1.18,1.92c-.05.55-.27,1.29.23,1.53.22.11.5,0,.73.14a1.16,1.16,0,0,1,.51.65c.51,1.16,1.8,6.06,3.5,5.44,1-.34,1.94-3.92,2.44-4.85a26.35,26.35,0,0,0,3,8.11,1.61,1.61,0,0,0,.67.74c.61.28,1.36-.23,2,0,.39.15.62.55.89.88a5.18,5.18,0,0,0,4.12,1.5,28.57,28.57,0,0,1,4.53-.06,30.51,30.51,0,0,1,4.12,1.35A14.23,14.23,0,0,0,217.93,253.75Z" style="fill:#92E3A9;stroke:#263238;stroke-linecap:round;stroke-linejoin:round"></path></clipPath><clipPath id="freepik--clip-path-3--inject-2"><path d="M413.8,226a7.09,7.09,0,0,1-1.08-3.9,4.1,4.1,0,0,1-1.73,2.78c-1.19-1.89-4.16-1.34-5.2-3.72-.49-1.15-.15-2.37-.24-3.56-.12-1.65-.73-2.36-1.39-3.79a5.11,5.11,0,0,1-.3-2.13v-8.51a4.66,4.66,0,0,1-1.81,2.48q-.8-6.88-1.6-13.78a1.33,1.33,0,0,0-.13-.51.92.92,0,0,0-1.4,0,2.56,2.56,0,0,0-.56,1.5c-.83,5.8-.82,11.9-3.45,17.13a12.15,12.15,0,0,0-1.42,3.35c-.25,1.41.15,2.94-.46,4.23-.45,1-1.39,1.62-1.84,2.58-.84,1.78-.21,4.13-1.4,5.78-1.32,1.84-4.07,2-5.77,3.36-2.32,1.88-2.57,5.26-2.64,8.24,0,.92-3.26-.07-3.59-.23-1.42-.68-2.25-2.11-3.06.51-.27.88-.27,1.82-.52,2.71-.39,1.33-1.34,2.34-1.89,3.58-.64,1.45-.24,1.89-.26,3.2-.05,2.82-1.59,2.53-3.89,3.53-1.23.55-1.49,1.38-2.59,2.09a1.27,1.27,0,0,1-1.52,0c-.64-.59-.19-1.65-.32-2.51a1.8,1.8,0,0,0-3.11-1c-.59.64-.65,1.62-1.19,2.29-1.07,1.32-3.17.76-4.82,1.18s-2.14,1.92-3.46,2.47c-1.16.49-3,.32-4.28.49a23.67,23.67,0,0,0-4.55.91c-.12,0-2.6,1.29-2.3,1.42,2.78,1.21,6.05,1.74,9,2.55a28.52,28.52,0,0,0,8.85,1.44c1.89-.1,3.87-.56,5.62.17.77.32,1.45.86,2.23,1.16a7.55,7.55,0,0,0,2.72.35c5.47,0,11.11-.59,16.28,1.19,1.06.36,2.09.82,3.17,1.14a17.58,17.58,0,0,0,4.45.63c4.12.13,8.32-.61,12.33.35a11.94,11.94,0,0,0,3.76.65,5.75,5.75,0,0,0,4-2.56,19.92,19.92,0,0,0,2.26-4.58c.5-1.36.38-3.07,1.07-4.34s2.2-1.71,3-2.82a6.27,6.27,0,0,0,.87-3.53c.44-9.62,2.42-20-4.13-28.16C415.33,222.85,413.8,225,413.8,226Z" style="fill:#92E3A9;stroke:#263238;stroke-linecap:round;stroke-linejoin:round"></path></clipPath><clipPath id="freepik--clip-path-4--inject-2"><path d="M108.63,309.38c-1.49,1.08-7.3.46-10.77-12.35,0,0,0-.09,0-.14A4.48,4.48,0,0,1,94.27,295c-1.32-1.93-1.91-5.84-1.91-5.84h0c-.4-.1-5.76-1.5-2.06-5.23,2.79-2.81,6.89.24,6.09,2.6a2.44,2.44,0,0,1-.1.24l.6.28c1.42,1.52,4.47,5,4.74,7.05,0,.09,0,.14,0,.14l0,0c.24.21,2.06,1.81,4.78,4.67C109.33,302,110.13,308.3,108.63,309.38Z" style="fill:#757575;stroke:#263238;stroke-linecap:round;stroke-linejoin:round"></path></clipPath><clipPath id="freepik--clip-path-5--inject-2"><path d="M319.59,312.24a5.46,5.46,0,0,1-1.23-4.11,14.77,14.77,0,0,1,2.48-4.77c-2.16-1.28.08-6.3,4-5.51,5.22,1,.59,5.33.59,5.33s1.3,3.47,1,5.73a5,5,0,0,1-2.28,3.42c2.95,12.29-2,15.93-3.8,15.87s-4-5.53-2.88-9.6S319.59,312.24,319.59,312.24Z" style="fill:#92E3A9;stroke:#263238;stroke-linecap:round;stroke-linejoin:round"></path></clipPath><clipPath id="freepik--clip-path-6--inject-2"><path d="M416.19,369.33c-10-4.08-22-18.4-13.76-34.87s-2.5-26.11,2.53-37.85,17.41-4.34,21.6,10.17,4.93,21.07,9.27,27.26C446.19,348.82,434.16,376.68,416.19,369.33Z" style="fill:#92E3A9;stroke:#263238;stroke-linecap:round;stroke-linejoin:round"></path></clipPath><clipPath id="freepik--clip-path-7--inject-2"><path d="M390.73,377.06c-13.71-.27-34.61-11.78-32.39-35.16s-15-29.9-14.4-46.18,18.72-13.17,30.38,2.16,15.55,22.8,23.55,28.17C417,338.87,415.48,377.54,390.73,377.06Z" style="fill:#92E3A9;stroke:#263238;stroke-linecap:round;stroke-linejoin:round"></path></clipPath><clipPath id="freepik--clip-path-8--inject-2"><path d="M374.87,396.62c-8.19,4.74-24.63,5.41-31.68-9.19s-19.52-12.3-25-22.12,6.34-14.46,18.7-9.57,17.33,7.91,24,8.22C376.74,364.69,389.66,388.07,374.87,396.62Z" style="fill:#92E3A9;stroke:#263238;stroke-linecap:round;stroke-linejoin:round"></path></clipPath></defs><g id="freepik--Sun--inject-2"><circle cx="301.72" cy="113.16" r="28.21" transform="translate(-20.25 126.41) rotate(-22.91)" style="fill:#92E3A9"></circle><circle cx="301.72" cy="113.16" r="28.21" transform="translate(-20.25 126.41) rotate(-22.91)" style="fill:#fff;opacity:0.9"></circle></g><g id="freepik--Trees--inject-2"><path d="M442.05,263.57c-14-1.06-36.26-2.65-62.75-4.25-29.33-1.78-63.81-3.56-97.8-4.62-19.32-.6-38.49-1-56.48-1-2.37,0-4.74,0-7.09,0-45.48.11-87.15,1.37-118.3,2.65-21.39.88-37.83,1.78-47.14,2.32l5.3-14.14,16-3.63,32.87-63.24s10.06,1.15,10.28,0S129.5,164,129.5,164h7.32c1.48,0,7.16-5.66,7.16-5.66s8.27-23.91,9.74-24.16,9.5-.29,10-.8,16.51,6.36,16.51,6.36-2.39,15.5-1.57,17,4.6,12,6.67,11.21,11.12-.82,12.66,0,12.49,21.94,12.49,21.94-1.1.06,1.09,3.45,5.88,11.08,8,13S242.94,219,242.94,219l8.82,16.57c-.21-.75-6-20.61-8.82-23.67s-18.69-11.52-18.69-11.52l-6.32-13.08-5.82-9.63,13.37-17,9.56-7.36,2.5-4.11s1.38-1.58,5.4,0,5.9.83,7.86,4.11,5.46,13.77,6.08,14.59,4.09,5.43,4.09,5.43,6.5,10.8,7.58,12.33-1.86-.54,2,4.18,2.26,2.09,3.84,4.72,6.58,8.88,6.58,8.88l-2.43,3.83s-2.59,5.73-5.22,8.12-6.25,10.75-6.25,10.75,9.28-8.92,11.47-10.75,7.23-8.12,7.23-8.12l5.65-5.43,7.51-8.55s7.1-10.62,9.48-10.48,20.86,0,20.86,0-4.57,3,2.19,8.17,17.93,10.79,18.94,12.46,8,9.56,8,9.56l-2-11.16s.57-9.69,2-10.86,9.11-13.85,9.24-16.74,3.83-13.57,3.83-13.57l3.18-7.36,9.63,3.38s1.61,14.53,3.36,16.44,7,9.68,7,9.68c11.08,15.08,19.09,30.74,28.15,47.18a4.41,4.41,0,0,0,2.1,2.27,14.22,14.22,0,0,0,2.45.21c2.11.33,3.28,2.55,4.12,4.51q2.82,6.57,5.64,13.14A92.67,92.67,0,0,1,442.05,263.57Z" style="fill:#92E3A9"></path><path d="M442.05,263.57c-14-1.06-36.26-2.65-62.75-4.25-29.33-1.78-63.81-3.56-97.8-4.62-19.32-.6-38.49-1-56.48-1-2.37,0-4.74,0-7.09,0-45.48.11-87.15,1.37-118.3,2.65-21.39.88-37.83,1.78-47.14,2.32l5.3-14.14,16-3.63,32.87-63.24s10.06,1.15,10.28,0S129.5,164,129.5,164h7.32c1.48,0,7.16-5.66,7.16-5.66s8.27-23.91,9.74-24.16,9.5-.29,10-.8,16.51,6.36,16.51,6.36-2.39,15.5-1.57,17,4.6,12,6.67,11.21,11.12-.82,12.66,0,12.49,21.94,12.49,21.94-1.1.06,1.09,3.45,5.88,11.08,8,13S242.94,219,242.94,219l8.82,16.57c-.21-.75-6-20.61-8.82-23.67s-18.69-11.52-18.69-11.52l-6.32-13.08-5.82-9.63,13.37-17,9.56-7.36,2.5-4.11s1.38-1.58,5.4,0,5.9.83,7.86,4.11,5.46,13.77,6.08,14.59,4.09,5.43,4.09,5.43,6.5,10.8,7.58,12.33-1.86-.54,2,4.18,2.26,2.09,3.84,4.72,6.58,8.88,6.58,8.88l-2.43,3.83s-2.59,5.73-5.22,8.12-6.25,10.75-6.25,10.75,9.28-8.92,11.47-10.75,7.23-8.12,7.23-8.12l5.65-5.43,7.51-8.55s7.1-10.62,9.48-10.48,20.86,0,20.86,0-4.57,3,2.19,8.17,17.93,10.79,18.94,12.46,8,9.56,8,9.56l-2-11.16s.57-9.69,2-10.86,9.11-13.85,9.24-16.74,3.83-13.57,3.83-13.57l3.18-7.36,9.63,3.38s1.61,14.53,3.36,16.44,7,9.68,7,9.68c11.08,15.08,19.09,30.74,28.15,47.18a4.41,4.41,0,0,0,2.1,2.27,14.22,14.22,0,0,0,2.45.21c2.11.33,3.28,2.55,4.12,4.51q2.82,6.57,5.64,13.14A92.67,92.67,0,0,1,442.05,263.57Z" style="fill:#fff;opacity:0.8"></path><path d="M382.53,250.2c-.89,3.11-2.27,6-3.23,9.12-29.33-1.78-63.81-3.56-97.8-4.62a30.3,30.3,0,0,0,6.34-4.16c1.42-1.21,2.56-3.11,4.46-3.52,1.05-.23,1.48,1.86,2.53,1.65a1.42,1.42,0,0,0,.79-.68l2.85-4.2a1.08,1.08,0,0,1,.61-.53c.24-.06.51.06.75,0,.53-.15.45-.91.5-1.47a1.92,1.92,0,0,1,1.51-1.67.77.77,0,0,1,.45,0,.82.82,0,0,1,.37.43c.68,1.45.34,3.24,1.14,4.63a8.08,8.08,0,0,1,.52.9c.4,1-.24,4.59,1.06,2.26.89-1.61,1.24-3.59,2.15-5.24a19.41,19.41,0,0,0,.92-2.47,11.53,11.53,0,0,1,1.48-1.69l.18,2.2a1.24,1.24,0,0,0,.17.63c.3.44,1,.36,1.42.68a1.93,1.93,0,0,1,.52,1.37c.07.5.24,1.08.72,1.24.11,0,.24,0,.3.15a.33.33,0,0,1,.05.22,6.93,6.93,0,0,0,.07,1.29c.76-.28,1.72-2.66,2.11-3.52l1.89-4.17a14.85,14.85,0,0,0,1.53-3.78,12.13,12.13,0,0,1,.68-3.45c.13-.28.41-.63.68-.47s.19.34.18.55a13.85,13.85,0,0,0,.31,4.26c.17.62.42,1.21.62,1.82a22.14,22.14,0,0,1,.73,7.17c0,1.68.75,2.81,1.84,1.09a28.66,28.66,0,0,0,1.48-3.73,8.63,8.63,0,0,0,1-3.47,7,7,0,0,1,0-1.65,4.29,4.29,0,0,1,.6-1.26,15,15,0,0,0,2.05-6.69,5.63,5.63,0,0,1,.52-2.63c.23-.37.55-.66.79-1,.7-1.1.35-3.06.74-4.4s.81-2.75,2.09-3.39a.72.72,0,0,1,.51-.1c.26.08.36.37.43.63,1,4.26-.26,8.9,1.23,13,.54,1.48,1.42,3.06.82,4.5a7.56,7.56,0,0,0-.69,1.47c-.25,1.31,1.19,2.23,2.06,3.24a5.78,5.78,0,0,1,1.14,2.25c.11.38.15,2.28.42,2.45,1.2.75,1.35-3.5,1.31-4.14a1.52,1.52,0,0,1,.05-.6,1.75,1.75,0,0,1,.33-.44,5.83,5.83,0,0,0,1.36-2.28c.25-.78.34-1.61.56-2.4a3.58,3.58,0,0,1,1.28-2.06.52.52,0,0,1,.27-.1c.17,0,.28.19.35.35a5.1,5.1,0,0,1,.4,1.68,2.19,2.19,0,0,0,.17.85c.83,1.39,2.07-.09,2.38-.95a4.3,4.3,0,0,0,.15-1.52c0-1.1-.05-2.2-.07-3.31a1.84,1.84,0,0,1,.17-1,3.71,3.71,0,0,1,.69-.68,3.07,3.07,0,0,0,.58-1.12c.68-1.88,1.3-5.66,2.71-7a7.51,7.51,0,0,1,.68,1.46,3.1,3.1,0,0,1,.31,1.3,3.49,3.49,0,0,1-.28,1,4.85,4.85,0,0,0-.33,2.06c.11,1,.7,1.94.86,3,.11.74,0,1.5.05,2.24a42.58,42.58,0,0,0,1.21,6.23c.2.82.62,4.07,1.57,4.42,1.2.27,1.9-2.44,1.85-3.25a2,2,0,0,1,.18-1.4c.29-.36.82-.41,1.17-.71.54-.47.44-1.32.52-2,.12-1,1.44-1.45,2-2.2a20.16,20.16,0,0,0,2-4.28c.93-2.22,2.86-6,2.66-8.4a18.86,18.86,0,0,0,2.62,8.15q1.29-4.9,2.41-9.84c.46-2,.51-5.22,2.4-6.48-.37,2.77,1.7,4.88,1.8,7.56.07,1.86-1,3.72-.52,5.51.35,1.23,1.43,2.18,1.7,3.44s-.26,2.47.17,3.59a2.69,2.69,0,0,0,.28.53,8.72,8.72,0,0,0,1.17,1.27,12.5,12.5,0,0,1,3.52,6.95C382.4,244.54,383.61,246.36,382.53,250.2Z" style="fill:#92E3A9"></path><g style="clip-path:url(#freepik--clip-path--inject-2)"><path d="M382.53,250.2c-.89,3.11-2.27,6-3.23,9.12-29.33-1.78-63.81-3.56-97.8-4.62a30.3,30.3,0,0,0,6.34-4.16c1.42-1.21,2.56-3.11,4.46-3.52,1.05-.23,1.48,1.86,2.53,1.65a1.42,1.42,0,0,0,.79-.68l2.85-4.2a1.08,1.08,0,0,1,.61-.53c.24-.06.51.06.75,0,.53-.15.45-.91.5-1.47a1.92,1.92,0,0,1,1.51-1.67.77.77,0,0,1,.45,0,.82.82,0,0,1,.37.43c.68,1.45.34,3.24,1.14,4.63a8.08,8.08,0,0,1,.52.9c.4,1-.24,4.59,1.06,2.26.89-1.61,1.24-3.59,2.15-5.24a19.41,19.41,0,0,0,.92-2.47,11.53,11.53,0,0,1,1.48-1.69l.18,2.2a1.24,1.24,0,0,0,.17.63c.3.44,1,.36,1.42.68a1.93,1.93,0,0,1,.52,1.37c.07.5.24,1.08.72,1.24.11,0,.24,0,.3.15a.33.33,0,0,1,.05.22,6.93,6.93,0,0,0,.07,1.29c.76-.28,1.72-2.66,2.11-3.52l1.89-4.17a14.85,14.85,0,0,0,1.53-3.78,12.13,12.13,0,0,1,.68-3.45c.13-.28.41-.63.68-.47s.19.34.18.55a13.85,13.85,0,0,0,.31,4.26c.17.62.42,1.21.62,1.82a22.14,22.14,0,0,1,.73,7.17c0,1.68.75,2.81,1.84,1.09a28.66,28.66,0,0,0,1.48-3.73,8.63,8.63,0,0,0,1-3.47,7,7,0,0,1,0-1.65,4.29,4.29,0,0,1,.6-1.26,15,15,0,0,0,2.05-6.69,5.63,5.63,0,0,1,.52-2.63c.23-.37.55-.66.79-1,.7-1.1.35-3.06.74-4.4s.81-2.75,2.09-3.39a.72.72,0,0,1,.51-.1c.26.08.36.37.43.63,1,4.26-.26,8.9,1.23,13,.54,1.48,1.42,3.06.82,4.5a7.56,7.56,0,0,0-.69,1.47c-.25,1.31,1.19,2.23,2.06,3.24a5.78,5.78,0,0,1,1.14,2.25c.11.38.15,2.28.42,2.45,1.2.75,1.35-3.5,1.31-4.14a1.52,1.52,0,0,1,.05-.6,1.75,1.75,0,0,1,.33-.44,5.83,5.83,0,0,0,1.36-2.28c.25-.78.34-1.61.56-2.4a3.58,3.58,0,0,1,1.28-2.06.52.52,0,0,1,.27-.1c.17,0,.28.19.35.35a5.1,5.1,0,0,1,.4,1.68,2.19,2.19,0,0,0,.17.85c.83,1.39,2.07-.09,2.38-.95a4.3,4.3,0,0,0,.15-1.52c0-1.1-.05-2.2-.07-3.31a1.84,1.84,0,0,1,.17-1,3.71,3.71,0,0,1,.69-.68,3.07,3.07,0,0,0,.58-1.12c.68-1.88,1.3-5.66,2.71-7a7.51,7.51,0,0,1,.68,1.46,3.1,3.1,0,0,1,.31,1.3,3.49,3.49,0,0,1-.28,1,4.85,4.85,0,0,0-.33,2.06c.11,1,.7,1.94.86,3,.11.74,0,1.5.05,2.24a42.58,42.58,0,0,0,1.21,6.23c.2.82.62,4.07,1.57,4.42,1.2.27,1.9-2.44,1.85-3.25a2,2,0,0,1,.18-1.4c.29-.36.82-.41,1.17-.71.54-.47.44-1.32.52-2,.12-1,1.44-1.45,2-2.2a20.16,20.16,0,0,0,2-4.28c.93-2.22,2.86-6,2.66-8.4a18.86,18.86,0,0,0,2.62,8.15q1.29-4.9,2.41-9.84c.46-2,.51-5.22,2.4-6.48-.37,2.77,1.7,4.88,1.8,7.56.07,1.86-1,3.72-.52,5.51.35,1.23,1.43,2.18,1.7,3.44s-.26,2.47.17,3.59a2.69,2.69,0,0,0,.28.53,8.72,8.72,0,0,0,1.17,1.27,12.5,12.5,0,0,1,3.52,6.95C382.4,244.54,383.61,246.36,382.53,250.2Z" style="fill:#fff;opacity:0.6000000000000001"></path></g><path d="M382.53,250.2c-.89,3.11-2.27,6-3.23,9.12-29.33-1.78-63.81-3.56-97.8-4.62a30.3,30.3,0,0,0,6.34-4.16c1.42-1.21,2.56-3.11,4.46-3.52,1.05-.23,1.48,1.86,2.53,1.65a1.42,1.42,0,0,0,.79-.68l2.85-4.2a1.08,1.08,0,0,1,.61-.53c.24-.06.51.06.75,0,.53-.15.45-.91.5-1.47a1.92,1.92,0,0,1,1.51-1.67.77.77,0,0,1,.45,0,.82.82,0,0,1,.37.43c.68,1.45.34,3.24,1.14,4.63a8.08,8.08,0,0,1,.52.9c.4,1-.24,4.59,1.06,2.26.89-1.61,1.24-3.59,2.15-5.24a19.41,19.41,0,0,0,.92-2.47,11.53,11.53,0,0,1,1.48-1.69l.18,2.2a1.24,1.24,0,0,0,.17.63c.3.44,1,.36,1.42.68a1.93,1.93,0,0,1,.52,1.37c.07.5.24,1.08.72,1.24.11,0,.24,0,.3.15a.33.33,0,0,1,.05.22,6.93,6.93,0,0,0,.07,1.29c.76-.28,1.72-2.66,2.11-3.52l1.89-4.17a14.85,14.85,0,0,0,1.53-3.78,12.13,12.13,0,0,1,.68-3.45c.13-.28.41-.63.68-.47s.19.34.18.55a13.85,13.85,0,0,0,.31,4.26c.17.62.42,1.21.62,1.82a22.14,22.14,0,0,1,.73,7.17c0,1.68.75,2.81,1.84,1.09a28.66,28.66,0,0,0,1.48-3.73,8.63,8.63,0,0,0,1-3.47,7,7,0,0,1,0-1.65,4.29,4.29,0,0,1,.6-1.26,15,15,0,0,0,2.05-6.69,5.63,5.63,0,0,1,.52-2.63c.23-.37.55-.66.79-1,.7-1.1.35-3.06.74-4.4s.81-2.75,2.09-3.39a.72.72,0,0,1,.51-.1c.26.08.36.37.43.63,1,4.26-.26,8.9,1.23,13,.54,1.48,1.42,3.06.82,4.5a7.56,7.56,0,0,0-.69,1.47c-.25,1.31,1.19,2.23,2.06,3.24a5.78,5.78,0,0,1,1.14,2.25c.11.38.15,2.28.42,2.45,1.2.75,1.35-3.5,1.31-4.14a1.52,1.52,0,0,1,.05-.6,1.75,1.75,0,0,1,.33-.44,5.83,5.83,0,0,0,1.36-2.28c.25-.78.34-1.61.56-2.4a3.58,3.58,0,0,1,1.28-2.06.52.52,0,0,1,.27-.1c.17,0,.28.19.35.35a5.1,5.1,0,0,1,.4,1.68,2.19,2.19,0,0,0,.17.85c.83,1.39,2.07-.09,2.38-.95a4.3,4.3,0,0,0,.15-1.52c0-1.1-.05-2.2-.07-3.31a1.84,1.84,0,0,1,.17-1,3.71,3.71,0,0,1,.69-.68,3.07,3.07,0,0,0,.58-1.12c.68-1.88,1.3-5.66,2.71-7a7.51,7.51,0,0,1,.68,1.46,3.1,3.1,0,0,1,.31,1.3,3.49,3.49,0,0,1-.28,1,4.85,4.85,0,0,0-.33,2.06c.11,1,.7,1.94.86,3,.11.74,0,1.5.05,2.24a42.58,42.58,0,0,0,1.21,6.23c.2.82.62,4.07,1.57,4.42,1.2.27,1.9-2.44,1.85-3.25a2,2,0,0,1,.18-1.4c.29-.36.82-.41,1.17-.71.54-.47.44-1.32.52-2,.12-1,1.44-1.45,2-2.2a20.16,20.16,0,0,0,2-4.28c.93-2.22,2.86-6,2.66-8.4a18.86,18.86,0,0,0,2.62,8.15q1.29-4.9,2.41-9.84c.46-2,.51-5.22,2.4-6.48-.37,2.77,1.7,4.88,1.8,7.56.07,1.86-1,3.72-.52,5.51.35,1.23,1.43,2.18,1.7,3.44s-.26,2.47.17,3.59a2.69,2.69,0,0,0,.28.53,8.72,8.72,0,0,0,1.17,1.27,12.5,12.5,0,0,1,3.52,6.95C382.4,244.54,383.61,246.36,382.53,250.2Z" style="fill:none;stroke:#263238;stroke-linecap:round;stroke-linejoin:round"></path><path d="M217.93,253.75c-45.48.11-87.15,1.37-118.3,2.65l-1.45,0c-3.37-.1-6.75-.12-10.13-.11s-4.6.34-5.34-3.19c-.49-2.33,1.61-4.33,2.38-6.58.93-2.72-.09-5.86,1.06-8.49.39-.91,1-1.7,1.41-2.62.67-1.59.53-3.39.75-5.1.31-2.43,1.35-4.7,2-7,1.24-4.17,1.38-8.58,1.94-12.89.49-3.78,1.3-7.51,2.11-11.24q1.27-5.87,2.56-11.74c1.18,4.2,2.83,8,3.87,12.29.13.56,2.08,8.12,2.54,8.12-1.1.63-1.29,2.24-.82,3.43s3.53,7.82,4.64,8.27c2.73,1.11,4.58-2.29,6.61-3.68a9,9,0,0,0,1.39-1,2.71,2.71,0,0,0,.36-.46c.64-1,.37-2.39.83-3.51s1.73-1.92,2.3-3.07c.83-1.66.08-3.69.49-5.51.58-2.62,3-4.31,3.15-7.1,1.63,1.58,1.1,4.71,1.18,6.8q.19,5.07.57,10.12a19,19,0,0,0,4.07-7.54c-.64,2.37.57,6.4,1.07,8.75a20.38,20.38,0,0,0,1.2,4.57c.42.84,1.64,1.5,1.57,2.53,0,.72-.31,1.53.14,2.09.29.36.8.51,1,.91a2,2,0,0,1-.07,1.41c-.19.79,0,3.58,1.23,3.53,1-.16,2-3.29,2.35-4.05a42.48,42.48,0,0,0,2.32-5.9c.2-.73.22-1.49.46-2.2.34-1,1.09-1.76,1.38-2.75a4.61,4.61,0,0,0,0-2.09,3.92,3.92,0,0,1-.09-1,3.17,3.17,0,0,1,.55-1.23,6.88,6.88,0,0,1,.93-1.31c1.14,1.59,1.06,5.41,1.38,7.39a3.24,3.24,0,0,0,.37,1.2,5.25,5.25,0,0,1,.56.8,1.9,1.9,0,0,1,0,1c-.23,1.08-.45,2.16-.67,3.24a4.12,4.12,0,0,0-.13,1.52c.14.9,1.09,2.58,2.16,1.36a1.88,1.88,0,0,0,.32-.8,5.54,5.54,0,0,1,.7-1.57c.1-.15.24-.31.42-.28a.45.45,0,0,1,.24.15,3.56,3.56,0,0,1,.88,2.25c.07.82,0,1.65.11,2.46a6.1,6.1,0,0,0,.92,2.49,1.62,1.62,0,0,1,.25.49,1.54,1.54,0,0,1-.06.6c-.16.62-.78,4.84.53,4.31.29-.12.69-2,.87-2.33a5.85,5.85,0,0,1,1.52-2c1-.84,2.62-1.48,2.62-2.82a7.33,7.33,0,0,0-.41-1.56c-.33-1.53.83-2.93,1.62-4.28,2.22-3.78,1.81-8.58,3.6-12.58.11-.24.27-.51.53-.54a.68.68,0,0,1,.48.19c1.14.87,1.31,2.4,1.44,3.72s-.56,3.25-.07,4.46c.16.39.43.74.58,1.14a5.52,5.52,0,0,1,0,2.68,15.11,15.11,0,0,0,.8,7,4.6,4.6,0,0,1,.37,1.35,7.75,7.75,0,0,1-.29,1.63,8.46,8.46,0,0,0,.35,3.59,27.55,27.55,0,0,0,.76,3.93c.77,1.89,1.73.92,2-.73a22.36,22.36,0,0,1,2-6.92c.31-.56.66-1.1.94-1.68a13.41,13.41,0,0,0,1.08-4.13c0-.2.09-.44.28-.51s.51.29.58.59a11.89,11.89,0,0,1,0,3.52,15.38,15.38,0,0,0,.81,4l1.11,4.45c.22.91.73,3.43,1.43,3.84a6.44,6.44,0,0,0,.3-1.26.37.37,0,0,1,.09-.2c.08-.09.21-.08.32-.1.5-.06.78-.6.94-1.08a1.92,1.92,0,0,1,.76-1.25c.48-.24,1.15,0,1.52-.41a1.29,1.29,0,0,0,.28-.59c.19-.71.39-1.42.58-2.13a12.1,12.1,0,0,1,1.15,1.93,18.14,18.14,0,0,0,.45,2.6c.6,1.79.57,3.8,1.16,5.54.85,2.53.88-1.14,1.45-2a10.13,10.13,0,0,1,.68-.79c1-1.21,1-3,2-4.34a.91.91,0,0,1,.44-.36.78.78,0,0,1,.45.06,1.91,1.91,0,0,1,1.18,1.92c-.05.55-.27,1.29.23,1.53.22.11.5,0,.73.14a1.16,1.16,0,0,1,.51.65c.51,1.16,1.8,6.06,3.5,5.44,1-.34,1.94-3.92,2.44-4.85a26.35,26.35,0,0,0,3,8.11,1.61,1.61,0,0,0,.67.74c.61.28,1.36-.23,2,0,.39.15.62.55.89.88a5.18,5.18,0,0,0,4.12,1.5,28.57,28.57,0,0,1,4.53-.06,30.51,30.51,0,0,1,4.12,1.35A14.23,14.23,0,0,0,217.93,253.75Z" style="fill:#92E3A9"></path><g style="clip-path:url(#freepik--clip-path-2--inject-2)"><path d="M217.93,253.75c-45.48.11-87.15,1.37-118.3,2.65l-1.45,0c-3.37-.1-6.75-.12-10.13-.11s-4.6.34-5.34-3.19c-.49-2.33,1.61-4.33,2.38-6.58.93-2.72-.09-5.86,1.06-8.49.39-.91,1-1.7,1.41-2.62.67-1.59.53-3.39.75-5.1.31-2.43,1.35-4.7,2-7,1.24-4.17,1.38-8.58,1.94-12.89.49-3.78,1.3-7.51,2.11-11.24q1.27-5.87,2.56-11.74c1.18,4.2,2.83,8,3.87,12.29.13.56,2.08,8.12,2.54,8.12-1.1.63-1.29,2.24-.82,3.43s3.53,7.82,4.64,8.27c2.73,1.11,4.58-2.29,6.61-3.68a9,9,0,0,0,1.39-1,2.71,2.71,0,0,0,.36-.46c.64-1,.37-2.39.83-3.51s1.73-1.92,2.3-3.07c.83-1.66.08-3.69.49-5.51.58-2.62,3-4.31,3.15-7.1,1.63,1.58,1.1,4.71,1.18,6.8q.19,5.07.57,10.12a19,19,0,0,0,4.07-7.54c-.64,2.37.57,6.4,1.07,8.75a20.38,20.38,0,0,0,1.2,4.57c.42.84,1.64,1.5,1.57,2.53,0,.72-.31,1.53.14,2.09.29.36.8.51,1,.91a2,2,0,0,1-.07,1.41c-.19.79,0,3.58,1.23,3.53,1-.16,2-3.29,2.35-4.05a42.48,42.48,0,0,0,2.32-5.9c.2-.73.22-1.49.46-2.2.34-1,1.09-1.76,1.38-2.75a4.61,4.61,0,0,0,0-2.09,3.92,3.92,0,0,1-.09-1,3.17,3.17,0,0,1,.55-1.23,6.88,6.88,0,0,1,.93-1.31c1.14,1.59,1.06,5.41,1.38,7.39a3.24,3.24,0,0,0,.37,1.2,5.25,5.25,0,0,1,.56.8,1.9,1.9,0,0,1,0,1c-.23,1.08-.45,2.16-.67,3.24a4.12,4.12,0,0,0-.13,1.52c.14.9,1.09,2.58,2.16,1.36a1.88,1.88,0,0,0,.32-.8,5.54,5.54,0,0,1,.7-1.57c.1-.15.24-.31.42-.28a.45.45,0,0,1,.24.15,3.56,3.56,0,0,1,.88,2.25c.07.82,0,1.65.11,2.46a6.1,6.1,0,0,0,.92,2.49,1.62,1.62,0,0,1,.25.49,1.54,1.54,0,0,1-.06.6c-.16.62-.78,4.84.53,4.31.29-.12.69-2,.87-2.33a5.85,5.85,0,0,1,1.52-2c1-.84,2.62-1.48,2.62-2.82a7.33,7.33,0,0,0-.41-1.56c-.33-1.53.83-2.93,1.62-4.28,2.22-3.78,1.81-8.58,3.6-12.58.11-.24.27-.51.53-.54a.68.68,0,0,1,.48.19c1.14.87,1.31,2.4,1.44,3.72s-.56,3.25-.07,4.46c.16.39.43.74.58,1.14a5.52,5.52,0,0,1,0,2.68,15.11,15.11,0,0,0,.8,7,4.6,4.6,0,0,1,.37,1.35,7.75,7.75,0,0,1-.29,1.63,8.46,8.46,0,0,0,.35,3.59,27.55,27.55,0,0,0,.76,3.93c.77,1.89,1.73.92,2-.73a22.36,22.36,0,0,1,2-6.92c.31-.56.66-1.1.94-1.68a13.41,13.41,0,0,0,1.08-4.13c0-.2.09-.44.28-.51s.51.29.58.59a11.89,11.89,0,0,1,0,3.52,15.38,15.38,0,0,0,.81,4l1.11,4.45c.22.91.73,3.43,1.43,3.84a6.44,6.44,0,0,0,.3-1.26.37.37,0,0,1,.09-.2c.08-.09.21-.08.32-.1.5-.06.78-.6.94-1.08a1.92,1.92,0,0,1,.76-1.25c.48-.24,1.15,0,1.52-.41a1.29,1.29,0,0,0,.28-.59c.19-.71.39-1.42.58-2.13a12.1,12.1,0,0,1,1.15,1.93,18.14,18.14,0,0,0,.45,2.6c.6,1.79.57,3.8,1.16,5.54.85,2.53.88-1.14,1.45-2a10.13,10.13,0,0,1,.68-.79c1-1.21,1-3,2-4.34a.91.91,0,0,1,.44-.36.78.78,0,0,1,.45.06,1.91,1.91,0,0,1,1.18,1.92c-.05.55-.27,1.29.23,1.53.22.11.5,0,.73.14a1.16,1.16,0,0,1,.51.65c.51,1.16,1.8,6.06,3.5,5.44,1-.34,1.94-3.92,2.44-4.85a26.35,26.35,0,0,0,3,8.11,1.61,1.61,0,0,0,.67.74c.61.28,1.36-.23,2,0,.39.15.62.55.89.88a5.18,5.18,0,0,0,4.12,1.5,28.57,28.57,0,0,1,4.53-.06,30.51,30.51,0,0,1,4.12,1.35A14.23,14.23,0,0,0,217.93,253.75Z" style="fill:#fff;opacity:0.4"></path></g><path d="M217.93,253.75c-45.48.11-87.15,1.37-118.3,2.65l-1.45,0c-3.37-.1-6.75-.12-10.13-.11s-4.6.34-5.34-3.19c-.49-2.33,1.61-4.33,2.38-6.58.93-2.72-.09-5.86,1.06-8.49.39-.91,1-1.7,1.41-2.62.67-1.59.53-3.39.75-5.1.31-2.43,1.35-4.7,2-7,1.24-4.17,1.38-8.58,1.94-12.89.49-3.78,1.3-7.51,2.11-11.24q1.27-5.87,2.56-11.74c1.18,4.2,2.83,8,3.87,12.29.13.56,2.08,8.12,2.54,8.12-1.1.63-1.29,2.24-.82,3.43s3.53,7.82,4.64,8.27c2.73,1.11,4.58-2.29,6.61-3.68a9,9,0,0,0,1.39-1,2.71,2.71,0,0,0,.36-.46c.64-1,.37-2.39.83-3.51s1.73-1.92,2.3-3.07c.83-1.66.08-3.69.49-5.51.58-2.62,3-4.31,3.15-7.1,1.63,1.58,1.1,4.71,1.18,6.8q.19,5.07.57,10.12a19,19,0,0,0,4.07-7.54c-.64,2.37.57,6.4,1.07,8.75a20.38,20.38,0,0,0,1.2,4.57c.42.84,1.64,1.5,1.57,2.53,0,.72-.31,1.53.14,2.09.29.36.8.51,1,.91a2,2,0,0,1-.07,1.41c-.19.79,0,3.58,1.23,3.53,1-.16,2-3.29,2.35-4.05a42.48,42.48,0,0,0,2.32-5.9c.2-.73.22-1.49.46-2.2.34-1,1.09-1.76,1.38-2.75a4.61,4.61,0,0,0,0-2.09,3.92,3.92,0,0,1-.09-1,3.17,3.17,0,0,1,.55-1.23,6.88,6.88,0,0,1,.93-1.31c1.14,1.59,1.06,5.41,1.38,7.39a3.24,3.24,0,0,0,.37,1.2,5.25,5.25,0,0,1,.56.8,1.9,1.9,0,0,1,0,1c-.23,1.08-.45,2.16-.67,3.24a4.12,4.12,0,0,0-.13,1.52c.14.9,1.09,2.58,2.16,1.36a1.88,1.88,0,0,0,.32-.8,5.54,5.54,0,0,1,.7-1.57c.1-.15.24-.31.42-.28a.45.45,0,0,1,.24.15,3.56,3.56,0,0,1,.88,2.25c.07.82,0,1.65.11,2.46a6.1,6.1,0,0,0,.92,2.49,1.62,1.62,0,0,1,.25.49,1.54,1.54,0,0,1-.06.6c-.16.62-.78,4.84.53,4.31.29-.12.69-2,.87-2.33a5.85,5.85,0,0,1,1.52-2c1-.84,2.62-1.48,2.62-2.82a7.33,7.33,0,0,0-.41-1.56c-.33-1.53.83-2.93,1.62-4.28,2.22-3.78,1.81-8.58,3.6-12.58.11-.24.27-.51.53-.54a.68.68,0,0,1,.48.19c1.14.87,1.31,2.4,1.44,3.72s-.56,3.25-.07,4.46c.16.39.43.74.58,1.14a5.52,5.52,0,0,1,0,2.68,15.11,15.11,0,0,0,.8,7,4.6,4.6,0,0,1,.37,1.35,7.75,7.75,0,0,1-.29,1.63,8.46,8.46,0,0,0,.35,3.59,27.55,27.55,0,0,0,.76,3.93c.77,1.89,1.73.92,2-.73a22.36,22.36,0,0,1,2-6.92c.31-.56.66-1.1.94-1.68a13.41,13.41,0,0,0,1.08-4.13c0-.2.09-.44.28-.51s.51.29.58.59a11.89,11.89,0,0,1,0,3.52,15.38,15.38,0,0,0,.81,4l1.11,4.45c.22.91.73,3.43,1.43,3.84a6.44,6.44,0,0,0,.3-1.26.37.37,0,0,1,.09-.2c.08-.09.21-.08.32-.1.5-.06.78-.6.94-1.08a1.92,1.92,0,0,1,.76-1.25c.48-.24,1.15,0,1.52-.41a1.29,1.29,0,0,0,.28-.59c.19-.71.39-1.42.58-2.13a12.1,12.1,0,0,1,1.15,1.93,18.14,18.14,0,0,0,.45,2.6c.6,1.79.57,3.8,1.16,5.54.85,2.53.88-1.14,1.45-2a10.13,10.13,0,0,1,.68-.79c1-1.21,1-3,2-4.34a.91.91,0,0,1,.44-.36.78.78,0,0,1,.45.06,1.91,1.91,0,0,1,1.18,1.92c-.05.55-.27,1.29.23,1.53.22.11.5,0,.73.14a1.16,1.16,0,0,1,.51.65c.51,1.16,1.8,6.06,3.5,5.44,1-.34,1.94-3.92,2.44-4.85a26.35,26.35,0,0,0,3,8.11,1.61,1.61,0,0,0,.67.74c.61.28,1.36-.23,2,0,.39.15.62.55.89.88a5.18,5.18,0,0,0,4.12,1.5,28.57,28.57,0,0,1,4.53-.06,30.51,30.51,0,0,1,4.12,1.35A14.23,14.23,0,0,0,217.93,253.75Z" style="fill:none;stroke:#263238;stroke-linecap:round;stroke-linejoin:round"></path><path d="M457.7,264.78s-5.71-.47-15.65-1.21c-14-1.06-36.26-2.65-62.75-4.25-29.33-1.78-63.81-3.56-97.8-4.62-19.32-.6-38.49-1-56.48-1-2.37,0-4.74,0-7.09,0-45.48.11-87.15,1.37-118.3,2.65-21.39.88-37.83,1.78-47.14,2.32-5.58.33-8.6.53-8.6.53" style="fill:none;stroke:#263238;stroke-linecap:round;stroke-linejoin:round"></path><path d="M413.8,226a7.09,7.09,0,0,1-1.08-3.9,4.1,4.1,0,0,1-1.73,2.78c-1.19-1.89-4.16-1.34-5.2-3.72-.49-1.15-.15-2.37-.24-3.56-.12-1.65-.73-2.36-1.39-3.79a5.11,5.11,0,0,1-.3-2.13v-8.51a4.66,4.66,0,0,1-1.81,2.48q-.8-6.88-1.6-13.78a1.33,1.33,0,0,0-.13-.51.92.92,0,0,0-1.4,0,2.56,2.56,0,0,0-.56,1.5c-.83,5.8-.82,11.9-3.45,17.13a12.15,12.15,0,0,0-1.42,3.35c-.25,1.41.15,2.94-.46,4.23-.45,1-1.39,1.62-1.84,2.58-.84,1.78-.21,4.13-1.4,5.78-1.32,1.84-4.07,2-5.77,3.36-2.32,1.88-2.57,5.26-2.64,8.24,0,.92-3.26-.07-3.59-.23-1.42-.68-2.25-2.11-3.06.51-.27.88-.27,1.82-.52,2.71-.39,1.33-1.34,2.34-1.89,3.58-.64,1.45-.24,1.89-.26,3.2-.05,2.82-1.59,2.53-3.89,3.53-1.23.55-1.49,1.38-2.59,2.09a1.27,1.27,0,0,1-1.52,0c-.64-.59-.19-1.65-.32-2.51a1.8,1.8,0,0,0-3.11-1c-.59.64-.65,1.62-1.19,2.29-1.07,1.32-3.17.76-4.82,1.18s-2.14,1.92-3.46,2.47c-1.16.49-3,.32-4.28.49a23.67,23.67,0,0,0-4.55.91c-.12,0-2.6,1.29-2.3,1.42,2.78,1.21,6.05,1.74,9,2.55a28.52,28.52,0,0,0,8.85,1.44c1.89-.1,3.87-.56,5.62.17.77.32,1.45.86,2.23,1.16a7.55,7.55,0,0,0,2.72.35c5.47,0,11.11-.59,16.28,1.19,1.06.36,2.09.82,3.17,1.14a17.58,17.58,0,0,0,4.45.63c4.12.13,8.32-.61,12.33.35a11.94,11.94,0,0,0,3.76.65,5.75,5.75,0,0,0,4-2.56,19.92,19.92,0,0,0,2.26-4.58c.5-1.36.38-3.07,1.07-4.34s2.2-1.71,3-2.82a6.27,6.27,0,0,0,.87-3.53c.44-9.62,2.42-20-4.13-28.16C415.33,222.85,413.8,225,413.8,226Z" style="fill:#92E3A9"></path><g style="clip-path:url(#freepik--clip-path-3--inject-2)"><path d="M413.8,226a7.09,7.09,0,0,1-1.08-3.9,4.1,4.1,0,0,1-1.73,2.78c-1.19-1.89-4.16-1.34-5.2-3.72-.49-1.15-.15-2.37-.24-3.56-.12-1.65-.73-2.36-1.39-3.79a5.11,5.11,0,0,1-.3-2.13v-8.51a4.66,4.66,0,0,1-1.81,2.48q-.8-6.88-1.6-13.78a1.33,1.33,0,0,0-.13-.51.92.92,0,0,0-1.4,0,2.56,2.56,0,0,0-.56,1.5c-.83,5.8-.82,11.9-3.45,17.13a12.15,12.15,0,0,0-1.42,3.35c-.25,1.41.15,2.94-.46,4.23-.45,1-1.39,1.62-1.84,2.58-.84,1.78-.21,4.13-1.4,5.78-1.32,1.84-4.07,2-5.77,3.36-2.32,1.88-2.57,5.26-2.64,8.24,0,.92-3.26-.07-3.59-.23-1.42-.68-2.25-2.11-3.06.51-.27.88-.27,1.82-.52,2.71-.39,1.33-1.34,2.34-1.89,3.58-.64,1.45-.24,1.89-.26,3.2-.05,2.82-1.59,2.53-3.89,3.53-1.23.55-1.49,1.38-2.59,2.09a1.27,1.27,0,0,1-1.52,0c-.64-.59-.19-1.65-.32-2.51a1.8,1.8,0,0,0-3.11-1c-.59.64-.65,1.62-1.19,2.29-1.07,1.32-3.17.76-4.82,1.18s-2.14,1.92-3.46,2.47c-1.16.49-3,.32-4.28.49a23.67,23.67,0,0,0-4.55.91c-.12,0-2.6,1.29-2.3,1.42,2.78,1.21,6.05,1.74,9,2.55a28.52,28.52,0,0,0,8.85,1.44c1.89-.1,3.87-.56,5.62.17.77.32,1.45.86,2.23,1.16a7.55,7.55,0,0,0,2.72.35c5.47,0,11.11-.59,16.28,1.19,1.06.36,2.09.82,3.17,1.14a17.58,17.58,0,0,0,4.45.63c4.12.13,8.32-.61,12.33.35a11.94,11.94,0,0,0,3.76.65,5.75,5.75,0,0,0,4-2.56,19.92,19.92,0,0,0,2.26-4.58c.5-1.36.38-3.07,1.07-4.34s2.2-1.71,3-2.82a6.27,6.27,0,0,0,.87-3.53c.44-9.62,2.42-20-4.13-28.16C415.33,222.85,413.8,225,413.8,226Z" style="fill:#fff;opacity:0.4"></path></g><path d="M413.8,226a7.09,7.09,0,0,1-1.08-3.9,4.1,4.1,0,0,1-1.73,2.78c-1.19-1.89-4.16-1.34-5.2-3.72-.49-1.15-.15-2.37-.24-3.56-.12-1.65-.73-2.36-1.39-3.79a5.11,5.11,0,0,1-.3-2.13v-8.51a4.66,4.66,0,0,1-1.81,2.48q-.8-6.88-1.6-13.78a1.33,1.33,0,0,0-.13-.51.92.92,0,0,0-1.4,0,2.56,2.56,0,0,0-.56,1.5c-.83,5.8-.82,11.9-3.45,17.13a12.15,12.15,0,0,0-1.42,3.35c-.25,1.41.15,2.94-.46,4.23-.45,1-1.39,1.62-1.84,2.58-.84,1.78-.21,4.13-1.4,5.78-1.32,1.84-4.07,2-5.77,3.36-2.32,1.88-2.57,5.26-2.64,8.24,0,.92-3.26-.07-3.59-.23-1.42-.68-2.25-2.11-3.06.51-.27.88-.27,1.82-.52,2.71-.39,1.33-1.34,2.34-1.89,3.58-.64,1.45-.24,1.89-.26,3.2-.05,2.82-1.59,2.53-3.89,3.53-1.23.55-1.49,1.38-2.59,2.09a1.27,1.27,0,0,1-1.52,0c-.64-.59-.19-1.65-.32-2.51a1.8,1.8,0,0,0-3.11-1c-.59.64-.65,1.62-1.19,2.29-1.07,1.32-3.17.76-4.82,1.18s-2.14,1.92-3.46,2.47c-1.16.49-3,.32-4.28.49a23.67,23.67,0,0,0-4.55.91c-.12,0-2.6,1.29-2.3,1.42,2.78,1.21,6.05,1.74,9,2.55a28.52,28.52,0,0,0,8.85,1.44c1.89-.1,3.87-.56,5.62.17.77.32,1.45.86,2.23,1.16a7.55,7.55,0,0,0,2.72.35c5.47,0,11.11-.59,16.28,1.19,1.06.36,2.09.82,3.17,1.14a17.58,17.58,0,0,0,4.45.63c4.12.13,8.32-.61,12.33.35a11.94,11.94,0,0,0,3.76.65,5.75,5.75,0,0,0,4-2.56,19.92,19.92,0,0,0,2.26-4.58c.5-1.36.38-3.07,1.07-4.34s2.2-1.71,3-2.82a6.27,6.27,0,0,0,.87-3.53c.44-9.62,2.42-20-4.13-28.16C415.33,222.85,413.8,225,413.8,226Z" style="fill:none;stroke:#263238;stroke-linecap:round;stroke-linejoin:round"></path><path d="M47.6,220.26a9.44,9.44,0,0,0,1.34-1.06c1.69-1.74-.31-4.13,1.21-5.78.56-.61,1.55-.72,2-1.39a2.41,2.41,0,0,0-.35-2.65,5.23,5.23,0,0,1-1.25-2.51c-.08-2,2.55-2.86,3.81-4.44,2-2.49.23-6.4,1.62-9.27.7-1.47,2.17-2.52,2.64-4.08a10.37,10.37,0,0,0,.13-3.15c0-4.28,2.43-8.12,4.82-11.67a4.56,4.56,0,0,1,2.08,4.17c-.07.75-.25,1.7.39,2.11.34.22.8.18,1.14.39a1.72,1.72,0,0,1,.62,1.1,23,23,0,0,1,.68,7c.61.89,2-.17,2.21-1.24s.18-2.42,1.16-2.88a1.69,1.69,0,0,1,2.06.86,4.38,4.38,0,0,1,.34,2.41c-.16,2.29-.64,4.64,0,6.84.33,1.17,1,2.25,1.19,3.45a12,12,0,0,1,0,3c-.08,1.13-.39,9.3,1.14,9,1.32-.26,1.39-4.66,2.81-5.51,2-1.17,4.32,2.58,4.58,4.18.19,1.19-.24,2.38-.22,3.58a1,1,0,0,0,.25.77,3.91,3.91,0,0,0,.57.31c.53.33.5,1.08.45,1.7-.18,2.1-.74,5.23,1.79,5,1.74-.13,3.6-2,4.74-3.11,1.38-1.41,3-3,5.31-2.11a3.17,3.17,0,0,1,1.48,4.26,6.82,6.82,0,0,1,5,2,1.41,1.41,0,0,1,.51,1.05c0,.37-.35.65-.51,1a2,2,0,0,0,1.06,2.46,5.77,5.77,0,0,0,2.92.37c.77.55.19,1.78-.58,2.33s-1.77,1-1.87,2a5.38,5.38,0,0,0,.11,1.12c.11,1.22-.74,2.58-.06,3.6a5,5,0,0,0,1,.9,4.9,4.9,0,0,1,1.61,3.76,14.7,14.7,0,0,1-.77,4.14c2.87.64,2.87-1.84,5.5-2.46a7.92,7.92,0,0,0,1.19-.28c1.37-.59,1.89-2.64,3.38-2.77a4,4,0,0,1,2,.71,1.82,1.82,0,0,0,2,0c1-.94-.32-3.13.88-3.81a1.29,1.29,0,0,1,.64-.15,2.94,2.94,0,0,1,2.48,1.68,7.39,7.39,0,0,1,.69,3.05,4.78,4.78,0,0,0,.62,2.51c.2.28.47.51.66.81a3.51,3.51,0,0,1,.28,2.38,5,5,0,0,0,0,2.42c1.31,3.5,5.15-1.69,6.34-.41a1.23,1.23,0,0,0,1.43.17,2.78,2.78,0,0,0,1-1.11c1.35-2.33,1.39-5.36,3.19-7.36a7.55,7.55,0,0,0,.9,3.76,5.54,5.54,0,0,1,.59.92,8.41,8.41,0,0,1,.22,1.88c.25,1.66,2.15,3.33,3.16,4.62,1.67,2.16,3,2.12,5.51,2.9a.87.87,0,0,1,.52.33c.22.38-.22.84-.65.91s-.88-.07-1.31,0a3.36,3.36,0,0,0-.91.4c-2.82,1.52-5.36.07-8.25.44-4.05.51-7.93,2.24-12.07,2-7.11-.47-7.8,1.25-14.76,2.77-8.28,1.82-22.53-2.49-30.81-.68-5.75,1.26-11.51,2.53-17.35,3.35-2.77.39-4.64.72-7.32,0a21.68,21.68,0,0,0-8.66-.74,13,13,0,0,1-3.91.35,2.88,2.88,0,0,1-2.61-2.5c0-.71.34-1.5-.08-2.08a1.77,1.77,0,0,0-.82-.53,19.24,19.24,0,0,0-6.36-1.26,11.74,11.74,0,0,1-2.51.06c-.82-.18-1.62-1-1.37-1.77a3.4,3.4,0,0,1,.68-1c1.09-1.45.48-3.6,1.3-5.22.18-.34.5-.7.89-.65.14,0,.28.1.43.11.45,0,.6-.57.71-1a24.17,24.17,0,0,1,1.19-2.46,8.23,8.23,0,0,0,.39-1.77c.18-1.3,0-4,.72-5.12.95-1.5.32-.33,1.73-.67s1.44,0,2.45-1.77c.85-1.46,1.59-3,2.38-4.5a10.9,10.9,0,0,0,.84-1.88,19.39,19.39,0,0,0,.42-2.85A11.83,11.83,0,0,1,46,221.94,5.17,5.17,0,0,1,47.6,220.26Z" style="fill:#92E3A9"></path><path d="M48.13,219.47a4,4,0,0,0,1.08-.42c1.65-1.13-.41-4.15.94-5.63.56-.61,1.55-.72,2-1.39a2.41,2.41,0,0,0-.35-2.65,5.23,5.23,0,0,1-1.25-2.51c-.08-2,2.55-2.86,3.81-4.44,2-2.49.23-6.4,1.62-9.27.7-1.47,2.17-2.52,2.64-4.08a10.37,10.37,0,0,0,.13-3.15c0-4.28,2.43-8.12,4.82-11.67a4.56,4.56,0,0,1,2.08,4.17c-.07.75-.25,1.7.39,2.11.34.22.8.18,1.14.39a1.72,1.72,0,0,1,.62,1.1,23,23,0,0,1,.68,7c.61.89,2-.17,2.21-1.24s.18-2.42,1.16-2.88a1.69,1.69,0,0,1,2.06.86,4.38,4.38,0,0,1,.34,2.41c-.16,2.29-.64,4.64,0,6.84.33,1.17,1,2.25,1.19,3.45a12,12,0,0,1,0,3c-.08,1.13-.39,9.3,1.14,9,1.32-.26,1.39-4.66,2.81-5.51,2-1.17,4.32,2.58,4.58,4.18.19,1.19-.24,2.38-.22,3.58a1,1,0,0,0,.25.77,3.91,3.91,0,0,0,.57.31c.53.33.5,1.08.45,1.7-.18,2.1-.74,5.23,1.79,5,1.74-.13,3.6-2,4.74-3.11,1.38-1.41,3-3,5.31-2.11a3.17,3.17,0,0,1,1.48,4.26,6.82,6.82,0,0,1,5,2,1.41,1.41,0,0,1,.51,1.05c0,.37-.35.65-.51,1a2,2,0,0,0,1.06,2.46,5.77,5.77,0,0,0,2.92.37c.77.55.19,1.78-.58,2.33s-1.77,1-1.87,2a5.38,5.38,0,0,0,.11,1.12c.11,1.22-.74,2.58-.06,3.6a5,5,0,0,0,1,.9,4.9,4.9,0,0,1,1.61,3.76,14.7,14.7,0,0,1-.77,4.14c2.87.64,2.87-1.84,5.5-2.46a7.92,7.92,0,0,0,1.19-.28c1.37-.59,1.89-2.64,3.38-2.77a4,4,0,0,1,2,.71,1.82,1.82,0,0,0,2,0c1-.94-.32-3.13.88-3.81a1.29,1.29,0,0,1,.64-.15,2.94,2.94,0,0,1,2.48,1.68,7.39,7.39,0,0,1,.69,3.05,4.78,4.78,0,0,0,.62,2.51c.2.28.47.51.66.81a3.51,3.51,0,0,1,.28,2.38,5,5,0,0,0,0,2.42c1.31,3.5,5.15-1.69,6.34-.41a1.23,1.23,0,0,0,1.43.17,2.78,2.78,0,0,0,1-1.11c1.35-2.33,1.39-5.36,3.19-7.36a7.55,7.55,0,0,0,.9,3.76,5.54,5.54,0,0,1,.59.92,8.41,8.41,0,0,1,.22,1.88c.25,1.66,2.15,3.33,3.16,4.62,1.67,2.16,3,2.12,5.51,2.9a.87.87,0,0,1,.52.33c.22.38-.22.84-.65.91s-.88-.07-1.31,0a3.36,3.36,0,0,0-.91.4c-2.82,1.52-5.36.07-8.25.44-4.05.51-7.93,2.24-12.07,2-7.11-.47-7.8,1.25-14.76,2.77-8.28,1.82-22.53-2.49-30.81-.68a180.47,180.47,0,0,1-22.11,3.91" style="fill:none;stroke:#263238;stroke-linecap:round;stroke-linejoin:round"></path><path d="M477.92,284.89a1.37,1.37,0,0,1-.59.43c-.69.3-5,.9-5.19-.24s0,0-4.57-.08,0,0-3.95-.4,0,0-2.77.8,0,0-3.15-.25-.81-.15-3.18-.92-3.56-1.6-6.62-1.36,0,3.92,0,3.92-8.42-3-8.24-3.92-3.34-.64-5.43-.65-7.36-.32-7.36-.32l-2.52-2.28s-8.6-.16-9.78-2.19-5.15.05-7.49,0c-2.12-.05-.67-2.22-1-3.4-.53-2-3.26-2.38-5.12-2.69-1.66-.28-3.46-.39-5.08-.8-1.42-.36-2.67-1.15-4.22-1a2.78,2.78,0,0,1-1.86-.2c-1.71-1.25.82-2.41,1.14-3.32.57-1.56.07-2.72,1-4.4,1.08-2,.4-4.58,1.36-6.65.34-.74.88-1.37,1.28-2.09,1.83-3.25.77-8,3.72-10.32,1.27,1,.09,3.18.86,4.6.53,1,1.89,1.34,2.46,2.32a5.7,5.7,0,0,1,.43,1.42c.4,1.63,2.14,4.6,4,4.84,2.91.36.6-2.94,1.85-4.57a8.79,8.79,0,0,1,1.1-.92c1.2-1.06,1.14-2.89,1.17-4.48a20.53,20.53,0,0,1,2.42-9.2,3.59,3.59,0,0,1,1.11,3.06c.31.43,1,.17,1.39-.19a8.1,8.1,0,0,0,2.26-4.71c.27-1.38,1.11-3.7.76-5.05s-2-2-2.6-3.34c-1.24-2.85,2.93-3.73,2.81-6.32-.07-1.69-1.88-2.42-1.8-4,0-.84.72-1.56.73-2.41,0-.64-.38-1.32-.09-1.9a1.83,1.83,0,0,1,.71-.64l2.3-1.41a1.3,1.3,0,0,0,.48-.42,1.42,1.42,0,0,0,.16-.65c.28-3.28,1.44-6.16,1.69-9.44l1-12.22c.65-.48,1.33.58,1.43,1.38a67.47,67.47,0,0,1,.55,11.28c1.22-.15,2.68-.2,3.42.77a3.37,3.37,0,0,1,.35,2.6c-.34,2.13-.81,4.65.73,6.15.41.4.95.71,1.15,1.25s-.07,1.3.11,1.92c.28,1,1.59,1.63,1.29,2.57-.15.47-.64.72-.9,1.13-.59.92.23,2.12,1.18,2.65s2.1.79,2.8,1.62a3.23,3.23,0,0,0,1.36-2.74c0-.2,0-.39.05-.58a66.06,66.06,0,0,1,2.63-14.28l2.67,7.65q1.54-7.38,3.1-14.76a6.27,6.27,0,0,1,1.44-3.37c1.27,1.21,1.27,2.8,1.58,4.52a15.52,15.52,0,0,0,.6,2.12c.2.56.39,1.11.58,1.67a10.66,10.66,0,0,0,2.28,4.34c.71.69,1.71,1.53,1.31,2.43a5.59,5.59,0,0,1-.68.86,2.41,2.41,0,0,0,.17,2.62c.48.79,1.19,1.43,1.67,2.23a9,9,0,0,1,.93,2.84c.23,1.1.47,2.2.7,3.3a5.42,5.42,0,0,0,1.2,2.84,2.93,2.93,0,0,1,.83.93c.43,1.09-.4,1.95.23,3s1.24,1.44,1.34,2.91a14.81,14.81,0,0,0,.7,3.54,17.05,17.05,0,0,0,2.55,4.94,5.62,5.62,0,0,1,1.12,1.91,7,7,0,0,1-.12,2.41,7.59,7.59,0,0,0,2.35,6.31,3.57,3.57,0,0,1,.84.94c.41.82,0,1.84.23,2.72a16.13,16.13,0,0,0,.81,1.47c.41.91.17,2,.39,2.94.38,1.73,2.05,2.83,3,4.32,1.37,2.13,1.18,4.91,2.2,7.23.73,1.67,2.06,3,2.54,4.8s.1,3.33.06,5a13.75,13.75,0,0,0,.77,4.84C477.44,283.26,478.41,284.21,477.92,284.89Z" style="fill:#92E3A9"></path><path d="M478.25,285.15s-5.93,1.21-6.11-.07,0,0-4.57-.08,0,0-3.95-.4,0,0-2.77.8,0,0-3.15-.25-.81-.15-3.18-.92-3.56-1.6-6.62-1.36,0,3.92,0,3.92-8.42-3-8.24-3.92-3.34-.64-5.43-.65-7.36-.32-7.36-.32l-2.52-2.28s-8.6-.16-9.78-2.19-5.15.05-7.49,0c-2.12-.05-.67-2.22-1-3.4-.53-2-3.26-2.38-5.12-2.69-1.66-.28-3.46-.39-5.08-.8-1.42-.36-2.67-1.15-4.22-1a2.78,2.78,0,0,1-1.86-.2c-1.71-1.25.82-2.41,1.14-3.32.57-1.56.07-2.72,1-4.4,1.08-2,.4-4.58,1.36-6.65.34-.74.88-1.37,1.28-2.09,1.83-3.25.77-8,3.72-10.32,1.27,1,.09,3.18.86,4.6.53,1,1.89,1.34,2.46,2.32a5.7,5.7,0,0,1,.43,1.42c.4,1.63,2.14,4.6,4,4.84,2.91.36.6-2.94,1.85-4.57a8.79,8.79,0,0,1,1.1-.92c1.2-1.06,1.14-2.89,1.17-4.48a20.53,20.53,0,0,1,2.42-9.2,3.59,3.59,0,0,1,1.11,3.06c.31.43,1,.17,1.39-.19a8.1,8.1,0,0,0,2.26-4.71c.27-1.38,1.11-3.7.76-5.05s-2-2-2.6-3.34c-1.24-2.85,2.93-3.73,2.81-6.32-.07-1.69-1.88-2.42-1.8-4,0-.84.72-1.56.73-2.41,0-.64-.38-1.32-.09-1.9a1.83,1.83,0,0,1,.71-.64l2.3-1.41a1.3,1.3,0,0,0,.48-.42,1.42,1.42,0,0,0,.16-.65c.28-3.28,1.44-6.16,1.69-9.44l1-12.22c.65-.48,1.33.58,1.43,1.38a67.47,67.47,0,0,1,.55,11.28c1.22-.15,2.68-.2,3.42.77a3.37,3.37,0,0,1,.35,2.6c-.34,2.13-.81,4.65.73,6.15.41.4.95.71,1.15,1.25s-.07,1.3.11,1.92c.28,1,1.59,1.63,1.29,2.57-.15.47-.64.72-.9,1.13-.59.92.23,2.12,1.18,2.65s2.1.79,2.8,1.62a3.23,3.23,0,0,0,1.36-2.74c0-.2,0-.39.05-.58a66.06,66.06,0,0,1,2.63-14.28l2.67,7.65q1.54-7.38,3.1-14.76a6.27,6.27,0,0,1,1.44-3.37c1.27,1.21,1.27,2.8,1.58,4.52a15.52,15.52,0,0,0,.6,2.12c.2.56.39,1.11.58,1.67a10.66,10.66,0,0,0,2.28,4.34c.71.69,1.71,1.53,1.31,2.43a5.59,5.59,0,0,1-.68.86,2.41,2.41,0,0,0,.17,2.62c.48.79,1.19,1.43,1.67,2.23a9,9,0,0,1,.93,2.84c.23,1.1.47,2.2.7,3.3a5.42,5.42,0,0,0,1.2,2.84,2.93,2.93,0,0,1,.83.93c.35.89-.63,2.06,0,2.77" style="fill:none;stroke:#263238;stroke-linecap:round;stroke-linejoin:round"></path></g><g id="freepik--River--inject-2"><path d="M443.6,393.31c-32.2,38.48-92.1,64.08-189.6,64.08C76.94,457.39,22.56,373,32.64,280.28c9.09.48,23.27,1.54,25.85,3.57,3.85,3-5,4.84-5.34,8.16s5.52,4,6.3,7.89-2,5.39-1.66,7.79,7.19,16.13,31.45,21.4,37.62,4.92,34.52,10,45.3,6.25,68.16,10,48.12,8.8,55,7.06,37.85-.52,44,1.51,6.61,6.22,14,6,57.61,6.13,63.41,10.78,21,12.48,27.78,11.74C401.78,385.53,427.62,391.32,443.6,393.31Z" style="fill:#92E3A9;opacity:0.4"></path><path d="M462.42,362.92c-45.3-1.48-182.41-24.6-240.5-29.14C155.18,328.56,89.65,314,82.59,299.9S78.05,273.15,46.73,270c0,0-.48-2.67,28.66-3.44s17.65-.2,21.82,2.15,24,1.51,34.94,1.4c12.38-.12,24.69-1.91,37.06-1.49l24.61.83a1.72,1.72,0,0,1,1.09.28c.29.24.35.79,0,1a132.12,132.12,0,0,0-14.07-.15c-3.72.16-10.17-.39-13.51,1.35-5.2,2.72,8.12,5.26,10,5.84,1.54.48,3.13,1.09,3,2.87-.08,1.21-2.13,1.94-2.17,3-.14,3.45,13.57,2,16,1.93a572,572,0,0,1,60,.32,162.3,162.3,0,0,0-20.8.5c-5.89.47-13.83.17-19.26,2.26,3.19,3.37,13.05,1.84,17.4,1.86,3.46,0,8.38-.59,11.41,1.51,4,2.79-4.75,1.11,1.22,4.32s13.29,5.33,24.39,3.22,3.14-1.82,0-3.81,12.29,0,19.19-1.42,18.68,2.29,15.06-2.31-8.64-4.38,22.09-4.22q12.36.06,24.69.8a56.42,56.42,0,0,0,6.74.39c3.41-.22,3.74-3-.26-3l-20.48.14c-4.49,0-9.09,0-13.31-1.48l21.44-1.24c6.16-.35,12.41-.7,18.51.42s11.18,2.46,17.36,0a7.5,7.5,0,0,0-6.28-2.24c.73-1.36,2.58-1.54,4.13-1.55L390.9,280c-5.74-2.27-12.13-2-18.3-1.8q-14.42.38-28.82-.52c6.59-2.48,13.81-2.56,20.85-2.61l52.13-.36c7.46,0,15.09-.07,22.33,2,3.74,1.05,6.33,2.62,10.25,2.56,4.33-.07,8.67,0,13,.2a20.92,20.92,0,0,1,6.06.9,7.48,7.48,0,0,1,4.52,3.91c1.16,2.81.87,6.94,1.27,10,.43,3.33-.12,6.68-.12,10,0,4.21-.17,8.43-.49,12.63a151.18,151.18,0,0,1-3.74,23.93C469.29,343.09,464.48,363,462.42,362.92Z" style="fill:#92E3A9;opacity:0.4"></path><path d="M51.81,345.43c2.75-4.34,3.15,4.4,3.15,4.4l5.6-.86v4.43s6.07-.43,7.55,1.94,27.25,2.73,27.25,2.73-5.88,4.45-1.28,5.55,11.83.85,15.22,2.86,13,1.47,13.35,4.06,14.17,1.85,14.17,1.85-2.82,4.14,2,3,20.46-4.16,20.93-.26,1.76,5.17,4.89,4.28,3.65,1,5.35,2.4-.63,4.78,10.23,1.2,17.14-9.52,17.76-5.16-2.7,4.59,4.51,6.75,19,9,22.56,9,8.91-2.8,10-3.55,1.23,3.55,1.23,3.55,3.77-3.79,5.18-3,0,3.87,0,3.87a43.64,43.64,0,0,0,7.33-.82c3.19-.74,3.23,1.4,3.23,1.4l24.08,1.65s-5.16-2.17-2.78-3.38,6.27,1.15,6.27,1.15,5.95-.34,6.18-1.15,0,3.38,0,3.38,7.88-1.36,8.41,0-1.72,3,0,2.95,20.61-2.76,22,0,6.48,4.68,6.48,4.68" style="fill:none;stroke:#263238;stroke-linecap:round;stroke-linejoin:round"></path><path d="M330.14,421.83c-3.4-8.32-10.11-2.45-10.32-.85s.9,2.56-3.61,1.29-6.16.59-6.16.59-1,2.51-2.46,1.51-5.47,2.28-7.21,1.83-3.1,2.43-5.58,0-9,1.23-9,1.23-12.48.61-15.22-.54" style="fill:none;stroke:#263238;stroke-linecap:round;stroke-linejoin:round"></path><path d="M270.54,370.79c4.37-3.59,8.83-.1,8,.72s-1.41,2.48,2.43,2.05,4.8,4.32,4.8,4.32,6.37.59,9,.89,10.15.67,10.15.67" style="fill:none;stroke:#263238;stroke-linecap:round;stroke-linejoin:round"></path><path d="M254.41,374.73c-2-3.18,1.13,6.17-2.64,1.69s-4.74-6.1-7.61-4.89-3.72,3.61-5.08,3.2,2,1.47-2.81-.46-10.79.05-10.79.05" style="fill:none;stroke:#263238;stroke-linecap:round;stroke-linejoin:round"></path><path d="M36.48,311.36a2.59,2.59,0,0,1,.94-3.26c.25,2.06.49,4.11.74,6.17L42.6,311l.18,4.5,3.69-1.55c.76,1.52-.51,3.63.56,4.95.66.8,1.84.84,2.84,1.12a5.47,5.47,0,0,1,3.28,2.54c-.08-.53-.15-1.07-.23-1.6" style="fill:none;stroke:#263238;stroke-linecap:round;stroke-linejoin:round"></path><path d="M41.19,288.43a1.55,1.55,0,1,1,2.75,0,3.29,3.29,0,0,0,2.39-2.35,1.66,1.66,0,0,1,.31,1.6" style="fill:none;stroke:#263238;stroke-linecap:round;stroke-linejoin:round"></path><path d="M51.45,300.72a2.71,2.71,0,0,1,.36-2.38,3,3,0,0,1,1,2.42l2.15-.51" style="fill:none;stroke:#263238;stroke-linecap:round;stroke-linejoin:round"></path><path d="M99.63,343.05c.66-1.11,1.31-2.22,2-3.34.35-.59,1-1.28,1.6-1s.39,1.26.42,2a2.19,2.19,0,0,0,3.67,1.23,5.88,5.88,0,0,0,2.7,1.31" style="fill:none;stroke:#263238;stroke-linecap:round;stroke-linejoin:round"></path><path d="M186.5,365.27c-.31-1.08-.61-2.16-.92-3.24-.18-.62-.45-1.34-1.08-1.49-1.42-.36-1.71,2.4-3.16,2.69a2.77,2.77,0,0,0-5-1.33" style="fill:none;stroke:#263238;stroke-linecap:round;stroke-linejoin:round"></path><path d="M200.31,357.66a4.42,4.42,0,0,1,.94-2.9c.74-.72,2.31-.58,2.5.44.09.46-.11,1,.15,1.36.39.55,1.24.23,1.89.36s1.25.93,2,1c1.35.19,2.7-1.83,3.74-.95" style="fill:none;stroke:#263238;stroke-linecap:round;stroke-linejoin:round"></path><path d="M258.87,359.63a5.85,5.85,0,0,1,2.66-3.8c1.56.72,0,4,1.69,4.5l3-1.47c.18.4.36.81.53,1.21a6,6,0,0,1,3.56.48" style="fill:none;stroke:#263238;stroke-linecap:round;stroke-linejoin:round"></path><path d="M311.7,368.37a6,6,0,0,1,3.51.74,4.34,4.34,0,0,1,2-3.46,4.89,4.89,0,0,0,4.27,6c1.15.05,2.36-.32,3.44.08" style="fill:none;stroke:#263238;stroke-linecap:round;stroke-linejoin:round"></path><path d="M329.44,389.15a5.29,5.29,0,0,1,5.54,1.68l.14-3c.39-.46,1.18-.19,1.58.27s.65,1.06,1.17,1.38a4.47,4.47,0,0,0,1.91.31c.65.06,1.39.45,1.39,1.11" style="fill:none;stroke:#263238;stroke-linecap:round;stroke-linejoin:round"></path><path d="M390.81,407.55l0-6.23a2.46,2.46,0,0,1,.27-1.32c.56-.83,2-.56,2.59.23a7.4,7.4,0,0,1,1,2.82,3,3,0,0,0,1.79,2.26,14.94,14.94,0,0,0,2.31-.1c.78.06,1.58,1,1.06,1.54a4.48,4.48,0,0,0,2.76-2.17c.68.32.31,1.33.37,2.08.1,1.28,1.68,1.88,3,1.81s2.61-.51,3.83-.09" style="fill:none;stroke:#263238;stroke-linecap:round;stroke-linejoin:round"></path><path d="M229.87,423.72c-.45.26-1-.17-1.18-.67a8.73,8.73,0,0,1-.12-1.54,2.72,2.72,0,0,0-4.47-1.44,5.41,5.41,0,0,1-1,1.09,2.56,2.56,0,0,1-1.4.25l-5.36,0" style="fill:none;stroke:#263238;stroke-linecap:round;stroke-linejoin:round"></path><path d="M78.1,391l5.05,3,.69-4.3a1.22,1.22,0,0,1,.34-.8c.57-.44,1.29.36,1.46,1.06.37,1.4.28,2.89.61,4.31s1.26,2.86,2.7,3.08a19,19,0,0,0,2.49-.15c.84,0,1.8.61,1.69,1.44,1.38-.68,1.57-3.32,3.08-3.08a2.1,2.1,0,0,1,1.12.76,34.82,34.82,0,0,0,4.42,4.42,8.32,8.32,0,0,0,5.8,1.89" style="fill:none;stroke:#263238;stroke-linecap:round;stroke-linejoin:round"></path><path d="M138,423.32a28.54,28.54,0,0,1,8.11,2.58,10.86,10.86,0,0,1,2.5-4.87,9.76,9.76,0,0,1,2.79,5.87,1.69,1.69,0,0,0,.31,1c.4.42,1.09.24,1.67.16a3.75,3.75,0,0,1,3.8,2.08,3.37,3.37,0,0,1,4.88-1.64c.41.29.76.67,1.17,1a7.07,7.07,0,0,0,2.71.91,42.6,42.6,0,0,1,9.34,3.07,4.61,4.61,0,0,0-.13-3.71" style="fill:none;stroke:#263238;stroke-linecap:round;stroke-linejoin:round"></path><path d="M215.19,314.22a9.75,9.75,0,0,0,3.49-2.32c.53,1.32-.58,3.28.63,4,1.42.87,3-1.86,4.55-1.28" style="fill:none;stroke:#263238;stroke-linecap:round;stroke-linejoin:round"></path><path d="M256,319.23c1.15.49,2.12-1.71,3.3-1.3.83.29.81,1.6,1.58,2,.56.33,1.26,0,1.86-.24a15,15,0,0,1,12.58.35" style="fill:none;stroke:#263238;stroke-linecap:round;stroke-linejoin:round"></path><path d="M350.39,328.41c.1-.43.21-.85.31-1.28a2.87,2.87,0,0,0,4.78.31,6.17,6.17,0,0,0,6.84,2.88" style="fill:none;stroke:#263238;stroke-linecap:round;stroke-linejoin:round"></path><path d="M443.85,348.55c1.15.23,1.73-1.94,2.87-1.67a3.14,3.14,0,0,1,.79.46,4.47,4.47,0,0,0,2.47.16c.83-.05,1.87.29,2,1.12" style="fill:none;stroke:#263238;stroke-linecap:round;stroke-linejoin:round"></path><path d="M155.83,311.16l-12.56-.74-.11-1.92c-.92.86-2.56.16-3.08-1a6.06,6.06,0,0,1,0-3.72l-3.5,2.18a1,1,0,0,1-.68.22c-.42-.09-.52-.63-.57-1.06a6.14,6.14,0,0,0-1.48-3.26,1,1,0,0,0-.61-.39c-.47-.05-.76.49-.92.94l-1,2.93c-.76.36-1.39-.58-1.53-1.4s-.64-1.91-1.44-1.67a1.82,1.82,0,0,1-3.28,1.33c-.75-.12-.56,1.27-1.14,1.75-.84.7-1.79-1.16-2.88-1" style="fill:none;stroke:#263238;stroke-linecap:round;stroke-linejoin:round"></path><path d="M165.18,298.49a4.94,4.94,0,0,1,5.16.26c.5-1.09,1-2.18,1.51-3.27l2.18.73a12.13,12.13,0,0,1,4.59,2.31" style="fill:none;stroke:#263238;stroke-linecap:round;stroke-linejoin:round"></path><path d="M49.16,267.62c1.18-1.51,3.83,1.76,5.25.48.22-.2.38-.51.67-.58s.65.18.93.38a2.8,2.8,0,0,0,2.48.33" style="fill:none;stroke:#263238;stroke-linecap:round;stroke-linejoin:round"></path><path d="M275.67,272.88c-8,.73-16,.16-24-.4-9.33-.67-19.3-.43-28.48-2.13C240.4,268.16,258.69,269.67,275.67,272.88Z" style="fill:#92E3A9;opacity:0.4"></path><path d="M323.79,275.7a85.08,85.08,0,0,1-11.39.95,86,86,0,0,1-16.33-1.3A58.36,58.36,0,0,1,309,273.63c2.16,0,4.33.24,6.48.45C317.75,274.31,321.7,276,323.79,275.7Z" style="fill:#92E3A9;opacity:0.4"></path><path d="M482.18,358.31s-38.95,2-52-4.47c-26.17-13-82-22.81-163.56-25.85s-158.2-8.57-177.27-29.59C83.43,291.85,101,272,29.08,269.66l-1.62.28v2.76c11.46.89,28.18,3.23,39.08,9.34,11.5,6.46-10.07,13.91,0,27.46s51.7,32.69,170.55,39.9,147,17,151.75,27.44,68.86,12.94,68.86,12.94C488.55,382.14,482.18,358.31,482.18,358.31Z" style="fill:#fff"></path><path d="M452,389.5c-15.85-.89-59.27-4.1-63.11-12.66-4.7-10.49-32.9-20.22-151.75-27.44S76.61,323.05,66.54,309.5s11.5-21,0-27.46c-10.63-6-26.82-8.33-38.24-9.27" style="fill:none;stroke:#263238;stroke-linecap:round;stroke-linejoin:round"></path><path d="M29.08,269.66C101,272,83.43,291.85,89.37,298.4c19.07,21,95.68,26.55,177.27,29.59S404,340.84,430.2,353.84c8.79,4.36,29.36,4.87,41.82,4.74" style="fill:none;stroke:#263238;stroke-linecap:round;stroke-linejoin:round"></path><g style="opacity:0.5"><path d="M420.58,381.31c11.38,1.26,22.85,1.07,34.23,2.18" style="fill:none;stroke:#92E3A9;stroke-linecap:round;stroke-linejoin:round"></path><path d="M396.14,371.51c5.47,4.63,11.66,11.16,19.56,9.58" style="fill:none;stroke:#92E3A9;stroke-linecap:round;stroke-linejoin:round"></path><path d="M352.64,355.34c12.12,1.56,24.19,4.59,35,10.45" style="fill:none;stroke:#92E3A9;stroke-linecap:round;stroke-linejoin:round"></path><path d="M342.74,354.34q3.4.26,6.81.63" style="fill:none;stroke:#92E3A9;stroke-linecap:round;stroke-linejoin:round"></path><path d="M336.57,353.67l3.36.37" style="fill:none;stroke:#92E3A9;stroke-linecap:round;stroke-linejoin:round"></path><path d="M289.2,350.66q22,1.57,44.08,2.74" style="fill:none;stroke:#92E3A9;stroke-linecap:round;stroke-linejoin:round"></path><path d="M276.09,349.7l4.87.36" style="fill:none;stroke:#92E3A9;stroke-linecap:round;stroke-linejoin:round"></path><path d="M260.11,348.46l13.2,1" style="fill:none;stroke:#92E3A9;stroke-linecap:round;stroke-linejoin:round"></path><path d="M196.21,343.07c18.52,1.59,37,3.2,55.56,4.71" style="fill:none;stroke:#92E3A9;stroke-linecap:round;stroke-linejoin:round"></path><path d="M188,342.28l5.47.53" style="fill:none;stroke:#92E3A9;stroke-linecap:round;stroke-linejoin:round"></path><path d="M142.07,336.48c14.47,1.77,28.63,4.57,43.22,5.55" style="fill:none;stroke:#92E3A9;stroke-linecap:round;stroke-linejoin:round"></path><path d="M134.85,336c1.31,0,2.63.06,3.94.15" style="fill:none;stroke:#92E3A9;stroke-linecap:round;stroke-linejoin:round"></path><path d="M114.16,331.57c3.07.92,6.09,2,9.17,2.89" style="fill:none;stroke:#92E3A9;stroke-linecap:round;stroke-linejoin:round"></path><path d="M105.48,328.54q2.51.94,5,1.81" style="fill:none;stroke:#92E3A9;stroke-linecap:round;stroke-linejoin:round"></path><path d="M93.09,323.57c3.28,1.38,6.57,2.74,9.89,4" style="fill:none;stroke:#92E3A9;stroke-linecap:round;stroke-linejoin:round"></path><path d="M71.71,310.27C76,316,83,319,90,322.29" style="fill:none;stroke:#92E3A9;stroke-linecap:round;stroke-linejoin:round"></path><path d="M68.11,303.22c-.58,1.74.59,3.58,1.63,4.89" style="fill:none;stroke:#92E3A9;stroke-linecap:round;stroke-linejoin:round"></path><path d="M103.37,312.65a29.43,29.43,0,0,0,3.35.5" style="fill:none;stroke:#92E3A9;stroke-linecap:round;stroke-linejoin:round"></path><path d="M89.24,305.2a24.15,24.15,0,0,0,11.35,6.69" style="fill:none;stroke:#92E3A9;stroke-linecap:round;stroke-linejoin:round"></path><path d="M82.59,294.33a30.06,30.06,0,0,0,4,7.73" style="fill:none;stroke:#92E3A9;stroke-linecap:round;stroke-linejoin:round"></path><path d="M77.61,280C82,283,80,288,81.88,291.93" style="fill:none;stroke:#92E3A9;stroke-linecap:round;stroke-linejoin:round"></path><path d="M57.56,273.67c5.07.71,10.45,1.75,14.83,4.55" style="fill:none;stroke:#92E3A9;stroke-linecap:round;stroke-linejoin:round"></path><path d="M313.76,333.5c2,.18,4,.36,6.06.56" style="fill:none;stroke:#92E3A9;stroke-linecap:round;stroke-linejoin:round"></path><path d="M230.73,329.67c22.73.85,45.48,1.34,68.19,2.71" style="fill:none;stroke:#92E3A9;stroke-linecap:round;stroke-linejoin:round"></path><path d="M215.81,328.71q6.1.39,12.21.85" style="fill:none;stroke:#92E3A9;stroke-linecap:round;stroke-linejoin:round"></path><path d="M180.81,326.53c8.72.65,17.46,1.14,26.19,1.65" style="fill:none;stroke:#92E3A9;stroke-linecap:round;stroke-linejoin:round"></path><path d="M171.18,325.74c2.06.19,4.12.36,6.19.53" style="fill:none;stroke:#92E3A9;stroke-linecap:round;stroke-linejoin:round"></path><path d="M129.71,319.39a289.87,289.87,0,0,0,38.1,6" style="fill:none;stroke:#92E3A9;stroke-linecap:round;stroke-linejoin:round"></path><path d="M120.5,317.76q3.25.63,6.52,1.18" style="fill:none;stroke:#92E3A9;stroke-linecap:round;stroke-linejoin:round"></path><path d="M433.57,362c11.21,3.26,23,3.59,34.62,3" style="fill:none;stroke:#92E3A9;stroke-linecap:round;stroke-linejoin:round"></path><path d="M420.61,356.56q2.34,1.33,4.8,2.45" style="fill:none;stroke:#92E3A9;stroke-linecap:round;stroke-linejoin:round"></path><path d="M351.24,337.16c22.75,2.41,45.65,7.11,66.13,17.66" style="fill:none;stroke:#92E3A9;stroke-linecap:round;stroke-linejoin:round"></path><path d="M345,336.31c1.29.16,2.57.33,3.85.51" style="fill:none;stroke:#92E3A9;stroke-linecap:round;stroke-linejoin:round"></path><path d="M76.12,298.21C76,291,77,282,68.11,279" style="fill:none;stroke:#92E3A9;stroke-linecap:round;stroke-linejoin:round"></path><path d="M78.93,304.19a9.62,9.62,0,0,1-1.82-2.48" style="fill:none;stroke:#92E3A9;stroke-linecap:round;stroke-linejoin:round"></path><path d="M92.28,313.41c-3.77-2.39-7.5-4.85-11.22-7.31" style="fill:none;stroke:#92E3A9;stroke-linecap:round;stroke-linejoin:round"></path><path d="M98,316.93l-2.86-1.74" style="fill:none;stroke:#92E3A9;stroke-linecap:round;stroke-linejoin:round"></path><path d="M119.67,326.69a80.75,80.75,0,0,1-18.28-7.77" style="fill:none;stroke:#92E3A9;stroke-linecap:round;stroke-linejoin:round"></path><path d="M139.81,330.76A139.93,139.93,0,0,1,124.48,328" style="fill:none;stroke:#92E3A9;stroke-linecap:round;stroke-linejoin:round"></path><path d="M164.61,333c-7.27-.55-14.55-1-21.79-1.86" style="fill:none;stroke:#92E3A9;stroke-linecap:round;stroke-linejoin:round"></path><path d="M171.18,333.48l-3.85-.29" style="fill:none;stroke:#92E3A9;stroke-linecap:round;stroke-linejoin:round"></path><path d="M195.19,334.82c-7.15-.33-14.3-.7-21.44-1.16" style="fill:none;stroke:#92E3A9;stroke-linecap:round;stroke-linejoin:round"></path><path d="M207,335.12l-9-.18" style="fill:none;stroke:#92E3A9;stroke-linecap:round;stroke-linejoin:round"></path><path d="M239.6,335.91c-9.72-.29-19.44-.51-29.16-.72" style="fill:none;stroke:#92E3A9;stroke-linecap:round;stroke-linejoin:round"></path><path d="M294.17,338.81q-25.57-2.15-51.23-2.79" style="fill:none;stroke:#92E3A9;stroke-linecap:round;stroke-linejoin:round"></path><path d="M305.22,339.79l-4.84-.45" style="fill:none;stroke:#92E3A9;stroke-linecap:round;stroke-linejoin:round"></path><path d="M319,341.2c-3-.32-6-.64-9-.94" style="fill:none;stroke:#92E3A9;stroke-linecap:round;stroke-linejoin:round"></path><path d="M373.58,349.07c-16.85-3.79-34-5.8-51.19-7.49" style="fill:none;stroke:#92E3A9;stroke-linecap:round;stroke-linejoin:round"></path><path d="M407.53,364.72C400,355,389,352,376.83,349.83" style="fill:none;stroke:#92E3A9;stroke-linecap:round;stroke-linejoin:round"></path><path d="M414.57,368.82c-1.47-.71-2.92-1.49-4.31-2.34" style="fill:none;stroke:#92E3A9;stroke-linecap:round;stroke-linejoin:round"></path><path d="M421.41,371.53c-1.36-.44-2.71-.93-4-1.47" style="fill:none;stroke:#92E3A9;stroke-linecap:round;stroke-linejoin:round"></path><path d="M438.26,374.73a79.88,79.88,0,0,1-13.91-2.34" style="fill:none;stroke:#92E3A9;stroke-linecap:round;stroke-linejoin:round"></path><path d="M463.1,374.9c-7.32.25-14.65.46-22,0" style="fill:none;stroke:#92E3A9;stroke-linecap:round;stroke-linejoin:round"></path><path d="M194.57,330.69l4.62.28" style="fill:none;stroke:#92E3A9;stroke-linecap:round;stroke-linejoin:round"></path><path d="M149.58,327.66c14.1,1.15,28.22,2,42.34,2.87" style="fill:none;stroke:#92E3A9;stroke-linecap:round;stroke-linejoin:round"></path><path d="M119.45,322.56c8.82,2.82,18.1,3.75,27.27,4.78" style="fill:none;stroke:#92E3A9;stroke-linecap:round;stroke-linejoin:round"></path><path d="M109.3,318.07a43.6,43.6,0,0,0,5.92,3" style="fill:none;stroke:#92E3A9;stroke-linecap:round;stroke-linejoin:round"></path><path d="M401.16,351.55a20.78,20.78,0,0,1,3.77,2.61" style="fill:none;stroke:#92E3A9;stroke-linecap:round;stroke-linejoin:round"></path><path d="M388.06,347.48a57.4,57.4,0,0,1,10,2.63" style="fill:none;stroke:#92E3A9;stroke-linecap:round;stroke-linejoin:round"></path><path d="M350,341.1q16.72,2.34,33.34,5.48" style="fill:none;stroke:#92E3A9;stroke-linecap:round;stroke-linejoin:round"></path><path d="M291.41,335c18.43,1.32,36.83,3.13,55.14,5.61" style="fill:none;stroke:#92E3A9;stroke-linecap:round;stroke-linejoin:round"></path><path d="M270.54,333.64q9,.56,18.08,1.17" style="fill:none;stroke:#92E3A9;stroke-linecap:round;stroke-linejoin:round"></path><path d="M260.8,333.07l6.26.36" style="fill:none;stroke:#92E3A9;stroke-linecap:round;stroke-linejoin:round"></path><path d="M246.93,332.33l5.08.26" style="fill:none;stroke:#92E3A9;stroke-linecap:round;stroke-linejoin:round"></path><path d="M378.53,357.14q2.88.89,5.73,1.85" style="fill:none;stroke:#92E3A9;stroke-linecap:round;stroke-linejoin:round"></path><path d="M311.5,345.59c21.75,1.66,43.5,4.64,64.47,10.78" style="fill:none;stroke:#92E3A9;stroke-linecap:round;stroke-linejoin:round"></path><path d="M263.28,343.19c15,.61,30,1.11,45,2.16" style="fill:none;stroke:#92E3A9;stroke-linecap:round;stroke-linejoin:round"></path><path d="M238.38,342c5.3.33,10.6.6,15.9.84" style="fill:none;stroke:#92E3A9;stroke-linecap:round;stroke-linejoin:round"></path><path d="M221,340.86q7,.52,14,.92" style="fill:none;stroke:#92E3A9;stroke-linecap:round;stroke-linejoin:round"></path><path d="M212.11,340.44l6.34.3" style="fill:none;stroke:#92E3A9;stroke-linecap:round;stroke-linejoin:round"></path><path d="M71.63,295.07c-1.52,9.44,7,16.95,14.73,20.47" style="fill:none;stroke:#92E3A9;stroke-linecap:round;stroke-linejoin:round"></path><path d="M72.57,287.68c.41,1.64-.18,3.51-.52,5.12" style="fill:none;stroke:#92E3A9;stroke-linecap:round;stroke-linejoin:round"></path><path d="M48.37,273.92a130.94,130.94,0,0,0-14.61-2.3" style="fill:none;stroke:#92E3A9;stroke-linecap:round;stroke-linejoin:round"></path><path d="M62.7,277.15q-4.89-1.22-9.82-2.28" style="fill:none;stroke:#92E3A9;stroke-linecap:round;stroke-linejoin:round"></path></g></g><g id="freepik--Birds--inject-2"><path d="M173.1,136.58s7.21-4.84,11.53-.56a7.23,7.23,0,0,1,7.92-.93s-4.23.55-5.85,2.52a3.34,3.34,0,0,1,1.32-.51c.4,0,1.1.13,1,.77l.8.68s-1.5.08-1.7.37c-1.54,2.21-6.83,1.47-8.57,1.3a2.4,2.4,0,0,1-1.91.25c-1.88-.41-2.25-1.24-2.25-1.24s3.16.27,4.13.18a16.2,16.2,0,0,0,2.59-.77S180.37,136.55,173.1,136.58Z" style="fill:#263238"></path><path d="M203,161.18s5-3.36,8-.39a5,5,0,0,1,5.5-.64s-2.93.38-4.06,1.75a2.3,2.3,0,0,1,.92-.36c.27,0,.76.09.68.53l.56.47s-1,.06-1.18.26c-1.07,1.53-4.73,1-5.94.9a1.69,1.69,0,0,1-1.33.18c-1.3-.29-1.56-.86-1.56-.86s2.19.18,2.86.12a11,11,0,0,0,1.8-.53S208,161.15,203,161.18Z" style="fill:#263238"></path><path d="M234.5,144.77s3.73-2.5,6-.29a3.73,3.73,0,0,1,4.1-.48s-2.19.29-3,1.31a1.63,1.63,0,0,1,.68-.27c.21,0,.57.07.51.4l.42.35s-.78,0-.88.19c-.8,1.14-3.53.76-4.43.67a1.24,1.24,0,0,1-1,.13c-1-.21-1.16-.64-1.16-.64s1.63.14,2.13.1a9.3,9.3,0,0,0,1.34-.4S238.26,144.75,234.5,144.77Z" style="fill:#263238"></path><path d="M152.12,151.57s3.73-2.5,6-.29a3.74,3.74,0,0,1,4.1-.48s-2.19.29-3,1.31a1.63,1.63,0,0,1,.69-.27c.2,0,.56.07.51.4l.41.35s-.77,0-.88.19c-.79,1.14-3.53.76-4.43.67a1.24,1.24,0,0,1-1,.13c-1-.21-1.16-.64-1.16-.64s1.63.14,2.14.1a9.48,9.48,0,0,0,1.33-.4S155.88,151.55,152.12,151.57Z" style="fill:#263238"></path><path d="M250.77,166.4s2.46-1.65,3.93-.19a2.49,2.49,0,0,1,2.71-.32,3.77,3.77,0,0,0-2,.86,1.16,1.16,0,0,1,.45-.17c.13,0,.37,0,.34.26l.27.23s-.51,0-.58.13c-.53.75-2.33.5-2.92.44a.81.81,0,0,1-.65.09c-.64-.14-.77-.43-.77-.43a13.91,13.91,0,0,0,1.41.07,5.32,5.32,0,0,0,.88-.27S253.25,166.39,250.77,166.4Z" style="fill:#263238"></path><path d="M241.24,125.42s2.46-1.65,3.93-.18a2.45,2.45,0,0,1,2.7-.32,3.75,3.75,0,0,0-2,.86,1.12,1.12,0,0,1,.45-.18c.13,0,.37.05.33.27l.28.23s-.51,0-.58.12c-.53.76-2.33.5-2.92.44a.84.84,0,0,1-.66.09c-.64-.14-.76-.42-.76-.42s1.08.09,1.41.06a5.54,5.54,0,0,0,.88-.26S243.72,125.41,241.24,125.42Z" style="fill:#263238"></path><path d="M279.14,146.54s2.46-1.65,3.93-.19a2.49,2.49,0,0,1,2.71-.32,3.73,3.73,0,0,0-2,.87,1.12,1.12,0,0,1,.45-.18c.14,0,.38,0,.34.26l.27.23s-.51,0-.58.13c-.52.75-2.33.5-2.92.44a.81.81,0,0,1-.65.09c-.64-.14-.77-.42-.77-.42s1.08.09,1.41.06a5.54,5.54,0,0,0,.88-.26S281.62,146.53,279.14,146.54Z" style="fill:#263238"></path><path d="M119,170.68s2.46-1.65,3.94-.19a2.45,2.45,0,0,1,2.7-.32,3.8,3.8,0,0,0-2,.86,1.16,1.16,0,0,1,.45-.17c.14,0,.38,0,.34.26l.27.23s-.51,0-.58.13c-.52.75-2.32.5-2.92.44a.81.81,0,0,1-.65.09c-.64-.14-.77-.43-.77-.43s1.08.09,1.41.07a6.52,6.52,0,0,0,.88-.27S121.49,170.67,119,170.68Z" style="fill:#263238"></path></g><g id="freepik--Butterflies--inject-2"><path d="M94.09,292.91s-5-10.74-9.3-23c-8.33-24-.64-22.57,4.8-11.14,4.6,9.65,4.8,12,7.41,17.78,2,4.56,6.52,6.53,7.25.86.81-6.2,3.18,2.33,6.4,10.42s14.52-5.58,18.32-.52c3.95,5.26-15.32,6.67-18.08,11.91C106.85,306.9,94.09,292.91,94.09,292.91Z" style="fill:#263238"></path><path d="M93.56,288.35c-2.42-4.23-6-13.5-8.13-20.39s-2.57-12.26-1-11.2,4.78,12.79,5.06,16.39S95.87,292.42,93.56,288.35Z" style="fill:#92E3A9;opacity:0.5"></path><path d="M96.62,290.53c-1.23.37-2.7-4.53-3.11-6.51s-2.18-6.59-2.08-7.73S99.37,289.71,96.62,290.53Z" style="fill:#92E3A9;opacity:0.6000000000000001"></path><path d="M92.51,274.17c0,1.78-2-.17-1.93-1.48s-1.77-8.58-2-9.83S92.66,263.93,92.51,274.17Z" style="fill:#92E3A9;opacity:0.2"></path><path d="M95.32,281.35c-.85-1.87-1.81-3.31-1.5-4s.18-2.81.32-3.53,2.47,3.48,2.43,5.36S95.89,282.59,95.32,281.35Z" style="fill:#92E3A9;opacity:0.30000000000000004"></path><path d="M100.27,292.86c-1-.29-2-2.73-2.63-5.14s-1.47-4.1-.74-3.74,1.8-.12,1.66-.82.57-1.86,1.68.79S103.82,293.85,100.27,292.86Z" style="fill:#92E3A9;opacity:0.5"></path><path d="M103.49,294.75c-.37-.11,1-.56.75-2.31s.82-3.62,3.28-1.58,3,4.76,1.9,5.91-1.54,1.2-1.83.86A14.93,14.93,0,0,0,103.49,294.75Z" style="fill:#92E3A9;opacity:0.6000000000000001"></path><path d="M105.27,283c.4-1.31,1.8-.43,2.91,3.52s-1.3,1.42-2,.27A5.89,5.89,0,0,1,105.27,283Z" style="fill:#92E3A9;opacity:0.2"></path><path d="M102.15,286.33c-.46-1.68,1.22-.7,1.56-1.33s1.65,1.25,1,2a4,4,0,0,1-1.49,1.18C102.94,288.34,102.56,287.8,102.15,286.33Z" style="fill:#92E3A9;opacity:0.30000000000000004"></path><path d="M94.09,292.91s-5-10.74-9.3-23c-8.33-24-.64-22.57,4.8-11.14,4.6,9.65,4.8,12,7.41,17.78,2,4.56,6.52,6.53,7.25.86.81-6.2,3.18,2.33,6.4,10.42s14.52-5.58,18.32-.52c3.95,5.26-15.32,6.67-18.08,11.91C106.85,306.9,94.09,292.91,94.09,292.91Z" style="opacity:0.5"></path><path d="M90.05,285.4s-8.2-11-13.14-11.68-2.88,5.84-.24,5.87a1.83,1.83,0,0,0,1.92-2.47" style="fill:none;stroke:#263238;stroke-linecap:round;stroke-linejoin:round"></path><path d="M92.52,283.75c.2-.3-5-14.25-8.26-16.72s-3.53,5.68-1,5.89,1.41-1.42,1.41-1.42" style="fill:none;stroke:#263238;stroke-linecap:round;stroke-linejoin:round"></path><path d="M108.63,309.38c-1.49,1.08-7.3.46-10.77-12.35,0,0,0-.09,0-.14A4.48,4.48,0,0,1,94.27,295c-1.32-1.93-1.91-5.84-1.91-5.84h0c-.4-.1-5.76-1.5-2.06-5.23,2.79-2.81,6.89.24,6.09,2.6a2.44,2.44,0,0,1-.1.24l.6.28c1.42,1.52,4.47,5,4.74,7.05,0,.09,0,.14,0,.14l0,0c.24.21,2.06,1.81,4.78,4.67C109.33,302,110.13,308.3,108.63,309.38Z" style="fill:#757575"></path><g style="clip-path:url(#freepik--clip-path-4--inject-2)"><path d="M101.62,294.28a1.46,1.46,0,0,1-.07.6c-.47,1.29-2.07,1.85-3.69,2.15,0,0,0-.09,0-.14A4.48,4.48,0,0,1,94.27,295c-1.32-1.93-1.91-5.84-1.91-5.84a6.2,6.2,0,0,0,3.76-2.88l.25.25.5.52c1.42,1.52,4.47,5,4.74,7.05A1,1,0,0,1,101.62,294.28Z" style="fill:#92E3A9;opacity:0.6000000000000001"></path></g><path d="M108.63,309.38c-1.49,1.08-7.3.46-10.77-12.35,0,0,0-.09,0-.14A4.48,4.48,0,0,1,94.27,295c-1.32-1.93-1.91-5.84-1.91-5.84h0c-.4-.1-5.76-1.5-2.06-5.23,2.79-2.81,6.89.24,6.09,2.6a2.44,2.44,0,0,1-.1.24l.6.28c1.42,1.52,4.47,5,4.74,7.05,0,.09,0,.14,0,.14l0,0c.24.21,2.06,1.81,4.78,4.67C109.33,302,110.13,308.3,108.63,309.38Z" style="fill:none;stroke:#263238;stroke-linecap:round;stroke-linejoin:round"></path><path d="M95.36,288.89a153.07,153.07,0,0,1,9.78-25.37c12.28-24.75,21-15.19,17.7-3.55-2.69,9.58-4.43,11.28-6.24,16.92-1.4,4.38,2.44,7.76,7.71,4.09s1.52,2.84-1.11,9.49,15.53.17,15.38,3.9-16.81,1.27-24,4.73C102,305.12,95.36,288.89,95.36,288.89Z" style="fill:#263238"></path><path d="M99.67,284.51c.53-5,4.7-15,8.69-21.89s8.61-10.69,9.8-8.45-5.58,12.69-8.77,15.54S99.18,289.16,99.67,284.51Z" style="fill:#92E3A9;opacity:0.5"></path><path d="M102.52,287.78c-2.5-.19.39-5.12,1.83-7s3.43-6.58,4.75-7.4S107.67,288.17,102.52,287.78Z" style="fill:#92E3A9;opacity:0.6000000000000001"></path><path d="M112.78,272.49c-1.76,1.3-2.73-1.45-1.34-2.38s5.71-7.36,6.57-8.37S122.15,265.53,112.78,272.49Z" style="fill:#92E3A9;opacity:0.2"></path><path d="M109.88,279.58c.58-1.91.59-3.58,1.75-3.94s2.91-2,3.75-2.42.12,3.95-1.64,5.32S109.49,280.85,109.88,279.58Z" style="fill:#92E3A9;opacity:0.30000000000000004"></path><path d="M105.9,291.14c-1.31-.6-.27-3,1.14-5.32s1.86-4,2.58-3.37,2.66.74,3.13.13,2.43-1.15,1.52,1.35S110.1,293.07,105.9,291.14Z" style="fill:#92E3A9;opacity:0.5"></path><path d="M108.79,293.72c-.42-.19,1.89-.18,3.17-1.68s4.2-2.58,5.46-.27-.4,4.39-2.6,5.06-3,.64-3.06.3A8.09,8.09,0,0,0,108.79,293.72Z" style="fill:#92E3A9;opacity:0.6000000000000001"></path><path d="M121.15,285.22c1.45-.77,2.28.36.46,3.53s-2.55.61-2.46-.47A4.52,4.52,0,0,1,121.15,285.22Z" style="fill:#92E3A9;opacity:0.2"></path><path d="M114.64,286.53c.89-1.47,2.14-.07,3.08-.42s.91,1.52-.43,1.88a11,11,0,0,1-2.85.38C113.9,288.37,113.87,287.81,114.64,286.53Z" style="fill:#92E3A9;opacity:0.30000000000000004"></path><path d="M320.83,300.61a119.33,119.33,0,0,0-15.35-17.31c-16.44-14.86-17.23.75-10.84,9.59,5.27,7.28,6.88,7.64,10.09,11.76,2.5,3.2,1.81,9.29-2.46,9.62s.33,3.87,4.39,8.35-8.19,11.6-6.62,15.09,9.45-11.14,14.68-13.12C323.82,321.14,320.83,300.61,320.83,300.61Z" style="fill:#263238"></path><path d="M316.79,299.55c-2.27-4.4-8.5-11-13.38-14.75s-8.87-4-8.6-.94,8.05,8.14,10.88,8.54S318.91,303.68,316.79,299.55Z" style="fill:#92E3A9;opacity:0.5"></path><path d="M316.58,304.8c1.25-2-2.26-4.66-3.77-5.42s-4.46-3.82-5.49-3.64S314,309,316.58,304.8Z" style="fill:#92E3A9;opacity:0.6000000000000001"></path><path d="M305,297.58c1.46,0,.88-3.4-.24-3.28s-6-2.9-6.84-3.24S297.23,297.76,305,297.58Z" style="fill:#92E3A9;opacity:0.2"></path><path d="M309.39,302.3c-1.08-1.42-1.75-3-2.52-2.52s-2.33.23-2.95.43,1.51,3.89,3,3.93S310.1,303.25,309.39,302.3Z" style="fill:#92E3A9;opacity:0.30000000000000004"></path><path d="M316.13,310.54c.45-1.54-1.07-3.13-2.74-4.3s-2.59-2.51-2.72-1.36-1.12,2.68-1.61,2.43-1.76.68-.27,2.43S314.66,315.5,316.13,310.54Z" style="fill:#92E3A9;opacity:0.5"></path><path d="M315.62,315.16c.15-.5-1.08,1.22-2.35.71s-3.27.6-3,3.75,2,3.95,3.41,3,1.84-1.57,1.75-2A17.84,17.84,0,0,1,315.62,315.16Z" style="fill:#92E3A9;opacity:0.6000000000000001"></path><path d="M305.65,316.05c-1.08.32-1.07,2,1.16,3.74s1.61-1.28,1.13-2.26S306.34,315.84,305.65,316.05Z" style="fill:#92E3A9;opacity:0.2"></path><path d="M309.63,312.52c-1.05-.77-1.16,1.5-1.8,1.85s.12,2.15,1,1.5a8.17,8.17,0,0,0,1.67-1.72C310.76,313.75,310.56,313.19,309.63,312.52Z" style="fill:#92E3A9;opacity:0.30000000000000004"></path><path d="M324.65,300.44a181.09,181.09,0,0,1,12.08-19.14c12.44-16.79,10.77-1.07,5.51,8.55-4.34,7.92-5.4,8.46-8,13-2,3.5-2.43,9.59.22,9.47s-.75,3.95-3.93,8.91,3.55,10.87,2.08,14.56-4.41-10.26-7.44-11.71C319.91,321.53,324.65,300.44,324.65,300.44Z" style="fill:#263238"></path><path d="M327.34,298.94a83.4,83.4,0,0,1,10.49-16.35c3.61-4.31,6.15-5,5.55-1.86s-6.2,9.09-8.05,9.8S325.43,303.34,327.34,298.94Z" style="fill:#92E3A9;opacity:0.5"></path><path d="M326.74,304.23c-.51-1.9,2.07-5,3.14-5.88s3.34-4.34,4-4.27S327.79,308.17,326.74,304.23Z" style="fill:#92E3A9;opacity:0.6000000000000001"></path><path d="M335.05,295.7c-.92.12-.08-3.36.61-3.35s4.17-3.57,4.76-4S339.92,295.05,335.05,295.7Z" style="fill:#92E3A9;opacity:0.2"></path><path d="M331.63,300.94c.88-1.56,1.52-3.24,1.93-2.82s1.44,0,1.81.12-1.5,4.1-2.44,4.29S331.05,302,331.63,300.94Z" style="fill:#92E3A9;opacity:0.30000000000000004"></path><path d="M326.23,310c-.07-1.51,1.11-3.28,2.33-4.64s2-2.81,1.9-1.66.33,2.58.68,2.28,1,.5-.17,2.43S326.47,314.85,326.23,310Z" style="fill:#92E3A9;opacity:0.5"></path><path d="M325.91,314.61c0-.49.51,1.12,1.39.47s2,.25,1.38,3.47-1.79,4.2-2.57,3.38-.94-1.4-.83-1.79A29.56,29.56,0,0,0,325.91,314.61Z" style="fill:#92E3A9;opacity:0.6000000000000001"></path><path d="M332.08,314.45c.63.21.39,1.93-1.26,3.91s-.83-1.13-.39-2.17S331.67,314.31,332.08,314.45Z" style="fill:#92E3A9;opacity:0.2"></path><path d="M330.05,311.3c.78-.89.53,1.4.88,1.69s-.37,2.18-.82,1.62a5.1,5.1,0,0,1-.81-1.57C329.17,312.67,329.38,312.08,330.05,311.3Z" style="fill:#92E3A9;opacity:0.30000000000000004"></path><path d="M324.65,300.44a181.09,181.09,0,0,1,12.08-19.14c12.44-16.79,10.77-1.07,5.51,8.55-4.34,7.92-5.4,8.46-8,13-2,3.5-2.43,9.59.22,9.47s-.75,3.95-3.93,8.91,3.55,10.87,2.08,14.56-4.41-10.26-7.44-11.71C319.91,321.53,324.65,300.44,324.65,300.44Z" style="opacity:0.5"></path><path d="M325.73,298.9s2.15-13.31,6.26-16.47,5.29,3.16,3,4.6-2.86-1-2.86-1" style="fill:none;stroke:#263238;stroke-linecap:round;stroke-linejoin:round"></path><path d="M322.77,298.9c-.32-.13-2.19-14.17-.45-17.9s5.79,2.68,3.64,4.21-1.92-.38-1.92-.38" style="fill:none;stroke:#263238;stroke-linecap:round;stroke-linejoin:round"></path><path d="M319.59,312.24a5.46,5.46,0,0,1-1.23-4.11,14.77,14.77,0,0,1,2.48-4.77c-2.16-1.28.08-6.3,4-5.51,5.22,1,.59,5.33.59,5.33s1.3,3.47,1,5.73a5,5,0,0,1-2.28,3.42c2.95,12.29-2,15.93-3.8,15.87s-4-5.53-2.88-9.6S319.59,312.24,319.59,312.24Z" style="fill:#92E3A9"></path><g style="clip-path:url(#freepik--clip-path-5--inject-2)"><path d="M320.64,303.2a.51.51,0,0,1,.56.33c.07.21.59.27.76.3a7.15,7.15,0,0,0,1,.08c.91,0,1.62-.64,2.5-.77.49-.47,4.26-4.3-.64-5.29C321.06,297.09,318.85,301.72,320.64,303.2Z" style="fill-opacity:0.7000000000000001;opacity:0.30000000000000004"></path><path d="M325.61,311a3.48,3.48,0,0,1-1.71,1.06,10.39,10.39,0,0,1-2.36.18,4.24,4.24,0,0,1-2.12-.29.39.39,0,0,1-.1-.08c.16.23.27.37.27.37s-.92,2.3-2.09,6.36,1,9.53,2.88,9.6,6.75-3.58,3.8-15.87A5.28,5.28,0,0,0,325.61,311Z" style="fill-opacity:0.7000000000000001;opacity:0.30000000000000004"></path></g><path d="M319.59,312.24a5.46,5.46,0,0,1-1.23-4.11,14.77,14.77,0,0,1,2.48-4.77c-2.16-1.28.08-6.3,4-5.51,5.22,1,.59,5.33.59,5.33s1.3,3.47,1,5.73a5,5,0,0,1-2.28,3.42c2.95,12.29-2,15.93-3.8,15.87s-4-5.53-2.88-9.6S319.59,312.24,319.59,312.24Z" style="fill:none;stroke:#263238;stroke-linecap:round;stroke-linejoin:round"></path></g><g id="freepik--Plants--inject-2"><path d="M241.76,433.47s12.84-6.65,9.31-9.77-10.18-2.1-10.18-2.1c4.43-6.08,1.71-8.65,1.71-8.65a10.85,10.85,0,0,0-8.46,7.26c-2.22-7.92-7.87-8.58-7.87-8.58C230.71,407.82,231,404,231,404c-7.09-1.43-14.67,4.3-14.67,4.3a19.09,19.09,0,0,0-7.29-19c10.44-1.55,10.73-10,10.73-10-7.13-5.88-15.52-3.08-15.52-3.08,4.18-7.12,1.05-16.93,1.05-16.93-7.65,3.7-8.11,15.35-8.11,15.35-1.9-4.35-6.75-7.82-6.75-7.82s1.71-6.32-.68-8-9.87.81-9.87.81,9.41-12.6,2.59-13.11-13.12,8.09-13.12,8.09c3.85-7.79,1.59-19.66-2.94-17.75s-5,16.1-5,16.1c-5-.4-10.91,1.59-10.91,1.59s5.27-5.69,2-9.87-8.3,4.71-8.3,4.71,8.23-16-.8-12.25-10.18,16.51-10.18,16.51c-6.6-1.59-10.34,5.65-10.34,5.65a31.12,31.12,0,0,0-3.4-17.73,34.72,34.72,0,0,0-7.6,24.43,71.8,71.8,0,0,0-8.37-4.29c-3.42-1.33-4.76,3.07-4.76,3.07s-1.84-7-5.53-11.61-2.32,11.73-2.32,11.73-4-5.27-10.74-4c0,0,.15,6.22,5.49,9.5,0,0-9.58,4.2-9.32,9.85,0,0-2.54-5.77-9.82-1.62,0,0,1.18,8,7.54,8.5,0,0-8.82,2.61-10.47,6.32,0,0,4.21,16.05,32.33,24.11s26.24,28,70.51,32.57c109.52,11.34,75.83-8.83,75.83-8.83s4.42,3.67,13.75,1.9C255.93,443.19,253.74,437,241.76,433.47Z" style="fill:#92E3A9"></path><path d="M241.76,433.47s12.84-6.65,9.31-9.77-10.18-2.1-10.18-2.1c4.43-6.08,1.71-8.65,1.71-8.65a10.85,10.85,0,0,0-8.46,7.26c-2.22-7.92-7.87-8.58-7.87-8.58C230.71,407.82,231,404,231,404c-7.09-1.43-14.67,4.3-14.67,4.3a19.09,19.09,0,0,0-7.29-19c10.44-1.55,10.73-10,10.73-10-7.13-5.88-15.52-3.08-15.52-3.08,4.18-7.12,1.05-16.93,1.05-16.93-7.65,3.7-8.11,15.35-8.11,15.35-1.9-4.35-6.75-7.82-6.75-7.82s1.71-6.32-.68-8-9.87.81-9.87.81,9.41-12.6,2.59-13.11-13.12,8.09-13.12,8.09c3.85-7.79,1.59-19.66-2.94-17.75s-5,16.1-5,16.1c-5-.4-10.91,1.59-10.91,1.59s5.27-5.69,2-9.87-8.3,4.71-8.3,4.71,8.23-16-.8-12.25-10.18,16.51-10.18,16.51c-6.6-1.59-10.34,5.65-10.34,5.65a31.12,31.12,0,0,0-3.4-17.73,34.72,34.72,0,0,0-7.6,24.43,71.8,71.8,0,0,0-8.37-4.29c-3.42-1.33-4.76,3.07-4.76,3.07s-1.84-7-5.53-11.61-2.32,11.73-2.32,11.73-4-5.27-10.74-4c0,0,.15,6.22,5.49,9.5,0,0-9.58,4.2-9.32,9.85,0,0-2.54-5.77-9.82-1.62,0,0,1.18,8,7.54,8.5,0,0-8.82,2.61-10.47,6.32,0,0,4.21,16.05,32.33,24.11s26.24,28,70.51,32.57c109.52,11.34,75.83-8.83,75.83-8.83s4.42,3.67,13.75,1.9C255.93,443.19,253.74,437,241.76,433.47Z" style="opacity:0.2"></path><path d="M242.18,441.29s4.42,3.67,13.75,1.9c0,0-2.19-6.24-14.17-9.72,0,0,12.84-6.65,9.31-9.77s-10.18-2.1-10.18-2.1c4.43-6.08,1.71-8.65,1.71-8.65a10.85,10.85,0,0,0-8.46,7.26c-2.22-7.92-7.87-8.58-7.87-8.58C230.71,407.82,231,404,231,404c-7.09-1.43-14.67,4.3-14.67,4.3a19.09,19.09,0,0,0-7.29-19c10.44-1.55,10.73-10,10.73-10-7.13-5.88-15.52-3.08-15.52-3.08,4.18-7.12,1.05-16.93,1.05-16.93-7.65,3.7-8.11,15.35-8.11,15.35-1.9-4.35-6.75-7.82-6.75-7.82s1.71-6.32-.68-8-9.87.81-9.87.81,9.41-12.6,2.59-13.11-13.12,8.09-13.12,8.09c3.85-7.79,1.59-19.66-2.94-17.75s-5,16.1-5,16.1c-5-.4-10.91,1.59-10.91,1.59s5.27-5.69,2-9.87-8.3,4.71-8.3,4.71,8.23-16-.8-12.25-10.18,16.51-10.18,16.51c-6.6-1.59-10.34,5.65-10.34,5.65a31.12,31.12,0,0,0-3.4-17.73,34.72,34.72,0,0,0-7.6,24.43,71.8,71.8,0,0,0-8.37-4.29c-3.42-1.33-4.76,3.07-4.76,3.07s-1.84-7-5.53-11.61-2.32,11.73-2.32,11.73-4-5.27-10.74-4c0,0,.15,6.22,5.49,9.5,0,0-9.58,4.2-9.32,9.85,0,0-2.54-5.77-9.82-1.62,0,0,1.18,8,7.54,8.5,0,0-8.82,2.61-10.47,6.32" style="fill:none;stroke:#263238;stroke-linecap:round;stroke-linejoin:round"></path><path d="M197,421c-3-6.7-5-6.93-5-6.93,6-.52,6.64-7.43,6.64-7.43-4.76-5.12-12.55-4-12.55-4,4.94-1.44,5.11-10.18,5.11-10.18-3.5-4.36-12.58-1.39-12.58-1.39,3.36-1.62,4.89-8.21,4.89-8.21-5.11-.57-10.09,4.85-10.09,4.85-.57-5.64-7.92-11.15-7.92-11.15s7.43-6,4.08-8.15-10.4,4-10.4,4,.42-14.54-3.08-11.68S154.74,373,154.74,373c-3.72-2.35-13-1.43-13-1.43s3-5.3-2.08-6.43-14.52,10-14.52,10c1-4-.06-7.95-1.94-7.5-3.68.88-5.91,13.92-5.91,13.92-.7-6.84-6.35-5.08-6.35-5.08-1.88,2.58-1.09,9.82-1.09,9.82-3.15-7.54-7.19-6.35-7.19-6.35s-4,2.88-1.68,11c0,0-5.68-4.11-10.89-5.06A14.27,14.27,0,0,0,96.25,397s-6.94-2.27-10.66-1.43,3.22,7.24,3.22,7.24l-4,.53s35.66,31.79,88.44,33.15,46-24.35,46-24.35-8.67,6.28-11,11.39c0,0,.88-6.84-2.84-11.09S197,421,197,421Z" style="opacity:0.2"></path><path d="M107.78,408.12s-.07-49.9-40.74-87.92" style="fill:none;stroke:#263238;stroke-linecap:round;stroke-linejoin:round"></path><path d="M102.79,378.85s1.18-11.46,7.34-15.56,2.35,14.07-6.72,17.74-20.15-6.22-17.54-10.52S102.79,378.85,102.79,378.85Z" style="fill:#92E3A9"></path><path d="M97.63,364.32s-1.57-12.92,4.4-15.06.1,15.43-3.14,18.17-20-4.38-18.76-8.86S97.63,364.32,97.63,364.32Z" style="fill:#92E3A9"></path><path d="M91.07,350.88s-1.51-10.42,1.51-12.5,2.75,8.71-.07,15.13c0,0-13.78,2.47-14.12-4.22S91.07,350.88,91.07,350.88Z" style="fill:#92E3A9"></path><path d="M84.33,340.13s-4.78-9.36-1.09-10.38,4.07,11.6,3.34,13.7c0,0-11.42-.6-11.81-4.72S84.33,340.13,84.33,340.13Z" style="fill:#92E3A9"></path><path d="M76.1,329.59s-2.38-5.94-.87-7.27,3.15,10,3.15,10-8.47-.24-9.08-2S76.1,329.59,76.1,329.59Z" style="fill:#92E3A9"></path><path d="M69.33,322.39s-1.77-5.15-.6-5.77,3,8.17,3,8.17-7.5.2-7.6-1.45S69.33,322.39,69.33,322.39Z" style="fill:#92E3A9"></path><path d="M61.12,315.9c.76-1.62,3.94.83,6.09,4.3C67.21,320.2,59.8,318.69,61.12,315.9Z" style="fill:#92E3A9"></path><g style="opacity:0.4"><path d="M102.79,378.85s1.18-11.46,7.34-15.56,2.35,14.07-6.72,17.74-20.15-6.22-17.54-10.52S102.79,378.85,102.79,378.85Z"></path><path d="M97.63,364.32s-1.57-12.92,4.4-15.06.1,15.43-3.14,18.17-20-4.38-18.76-8.86S97.63,364.32,97.63,364.32Z"></path><path d="M91.07,350.88s-1.51-10.42,1.51-12.5,2.75,8.71-.07,15.13c0,0-13.78,2.47-14.12-4.22S91.07,350.88,91.07,350.88Z"></path><path d="M84.33,340.13s-4.78-9.36-1.09-10.38,4.07,11.6,3.34,13.7c0,0-11.42-.6-11.81-4.72S84.33,340.13,84.33,340.13Z"></path><path d="M76.1,329.59s-2.38-5.94-.87-7.27,3.15,10,3.15,10-8.47-.24-9.08-2S76.1,329.59,76.1,329.59Z"></path><path d="M69.33,322.39s-1.77-5.15-.6-5.77,3,8.17,3,8.17-7.5.2-7.6-1.45S69.33,322.39,69.33,322.39Z"></path><path d="M61.12,315.9c.76-1.62,3.94.83,6.09,4.3C67.21,320.2,59.8,318.69,61.12,315.9Z"></path></g><path d="M102.79,378.85s1.18-11.46,7.34-15.56,2.35,14.07-6.72,17.74-20.15-6.22-17.54-10.52S102.79,378.85,102.79,378.85Z" style="fill:none;stroke:#263238;stroke-linecap:round;stroke-linejoin:round"></path><path d="M97.63,364.32s-1.57-12.92,4.4-15.06.1,15.43-3.14,18.17-20-4.38-18.76-8.86S97.63,364.32,97.63,364.32Z" style="fill:none;stroke:#263238;stroke-linecap:round;stroke-linejoin:round"></path><path d="M91.07,350.88s-1.51-10.42,1.51-12.5,2.75,8.71-.07,15.13c0,0-13.78,2.47-14.12-4.22S91.07,350.88,91.07,350.88Z" style="fill:none;stroke:#263238;stroke-linecap:round;stroke-linejoin:round"></path><path d="M84.33,340.13s-4.78-9.36-1.09-10.38,4.07,11.6,3.34,13.7c0,0-11.42-.6-11.81-4.72S84.33,340.13,84.33,340.13Z" style="fill:none;stroke:#263238;stroke-linecap:round;stroke-linejoin:round"></path><path d="M76.1,329.59s-2.38-5.94-.87-7.27,3.15,10,3.15,10-8.47-.24-9.08-2S76.1,329.59,76.1,329.59Z" style="fill:none;stroke:#263238;stroke-linecap:round;stroke-linejoin:round"></path><path d="M69.33,322.39s-1.77-5.15-.6-5.77,3,8.17,3,8.17-7.5.2-7.6-1.45S69.33,322.39,69.33,322.39Z" style="fill:none;stroke:#263238;stroke-linecap:round;stroke-linejoin:round"></path><path d="M61.12,315.9c.76-1.62,3.94.83,6.09,4.3C67.21,320.2,59.8,318.69,61.12,315.9Z" style="fill:none;stroke:#263238;stroke-linecap:round;stroke-linejoin:round"></path><path d="M201.44,413s7.25-49.38,53-81.14" style="fill:none;stroke:#263238;stroke-linecap:round;stroke-linejoin:round"></path><path d="M210.59,384.71s.48-11.51-5-16.45-4.36,13.58,4.1,18.53,20.83-3.26,18.87-7.9S210.59,384.71,210.59,384.71Z" style="fill:#92E3A9"></path><path d="M217.79,371.08s3.42-12.56-2.18-15.54-2.33,15.26.48,18.43,20.43-1.45,19.84-6.06S217.79,371.08,217.79,371.08Z" style="fill:#92E3A9"></path><path d="M226.21,358.72s3-10.1.31-12.58-4,8.22-2.11,15c0,0,13.28,4.42,14.59-2.15S226.21,358.72,226.21,358.72Z" style="fill:#92E3A9"></path><path d="M234.43,349.06s6.08-8.58,2.58-10.13-5.71,10.9-5.28,13.09c0,0,11.39,1,12.36-3S234.43,349.06,234.43,349.06Z" style="fill:#92E3A9"></path><path d="M244.09,339.81s3.21-5.54,1.92-7.07-4.56,9.41-4.56,9.41,8.42,1,9.28-.73S244.09,339.81,244.09,339.81Z" style="fill:#92E3A9"></path><path d="M251.83,333.66s2.49-4.84,1.43-5.62-4.11,7.65-4.11,7.65,7.39,1.27,7.72-.34S251.83,333.66,251.83,333.66Z" style="fill:#92E3A9"></path><path d="M260.89,328.42c-.52-1.71-4,.26-6.65,3.37C254.24,331.79,261.8,331.37,260.89,328.42Z" style="fill:#92E3A9"></path><g style="opacity:0.6000000000000001"><path d="M210.59,384.71s.48-11.51-5-16.45-4.36,13.58,4.1,18.53,20.83-3.26,18.87-7.9S210.59,384.71,210.59,384.71Z"></path><path d="M217.79,371.08s3.42-12.56-2.18-15.54-2.33,15.26.48,18.43,20.43-1.45,19.84-6.06S217.79,371.08,217.79,371.08Z"></path><path d="M226.21,358.72s3-10.1.31-12.58-4,8.22-2.11,15c0,0,13.28,4.42,14.59-2.15S226.21,358.72,226.21,358.72Z"></path><path d="M234.43,349.06s6.08-8.58,2.58-10.13-5.71,10.9-5.28,13.09c0,0,11.39,1,12.36-3S234.43,349.06,234.43,349.06Z"></path><path d="M244.09,339.81s3.21-5.54,1.92-7.07-4.56,9.41-4.56,9.41,8.42,1,9.28-.73S244.09,339.81,244.09,339.81Z"></path><path d="M251.83,333.66s2.49-4.84,1.43-5.62-4.11,7.65-4.11,7.65,7.39,1.27,7.72-.34S251.83,333.66,251.83,333.66Z"></path><path d="M260.89,328.42c-.52-1.71-4,.26-6.65,3.37C254.24,331.79,261.8,331.37,260.89,328.42Z"></path></g><path d="M210.59,384.71s.48-11.51-5-16.45-4.36,13.58,4.1,18.53,20.83-3.26,18.87-7.9S210.59,384.71,210.59,384.71Z" style="fill:none;stroke:#263238;stroke-linecap:round;stroke-linejoin:round"></path><path d="M217.79,371.08s3.42-12.56-2.18-15.54-2.33,15.26.48,18.43,20.43-1.45,19.84-6.06S217.79,371.08,217.79,371.08Z" style="fill:none;stroke:#263238;stroke-linecap:round;stroke-linejoin:round"></path><path d="M226.21,358.72s3-10.1.31-12.58-4,8.22-2.11,15c0,0,13.28,4.42,14.59-2.15S226.21,358.72,226.21,358.72Z" style="fill:none;stroke:#263238;stroke-linecap:round;stroke-linejoin:round"></path><path d="M234.43,349.06s6.08-8.58,2.58-10.13-5.71,10.9-5.28,13.09c0,0,11.39,1,12.36-3S234.43,349.06,234.43,349.06Z" style="fill:none;stroke:#263238;stroke-linecap:round;stroke-linejoin:round"></path><path d="M244.09,339.81s3.21-5.54,1.92-7.07-4.56,9.41-4.56,9.41,8.42,1,9.28-.73S244.09,339.81,244.09,339.81Z" style="fill:none;stroke:#263238;stroke-linecap:round;stroke-linejoin:round"></path><path d="M251.83,333.66s2.49-4.84,1.43-5.62-4.11,7.65-4.11,7.65,7.39,1.27,7.72-.34S251.83,333.66,251.83,333.66Z" style="fill:none;stroke:#263238;stroke-linecap:round;stroke-linejoin:round"></path><path d="M260.89,328.42c-.52-1.71-4,.26-6.65,3.37C254.24,331.79,261.8,331.37,260.89,328.42Z" style="fill:none;stroke:#263238;stroke-linecap:round;stroke-linejoin:round"></path><path d="M144,394s28.34-49.43,9.72-110.21" style="fill:none;stroke:#263238;stroke-linecap:round;stroke-linejoin:round"></path><path d="M155.7,362.15s7.7-10.67,16.12-11.21-5.68,15.26-16.75,13.73S138.66,347,143.7,344.27,155.7,362.15,155.7,362.15Z" style="fill:#92E3A9"></path><path d="M158.87,344.85s5.79-13.69,12.92-12.41-8.68,15.33-13.44,16.2S141,332.92,144.82,329.19,158.87,344.85,158.87,344.85Z" style="fill:#92E3A9"></path><path d="M160,327.81s4.43-11.18,8.6-11.52-2.23,10.19-8.68,14.94c0,0-15-5.41-11.57-12.22S160,327.81,160,327.81Z" style="fill:#92E3A9"></path><path d="M159.47,313.33s.6-12,4.84-10.9-2.58,13.81-4.51,15.46c0,0-11-7.1-9-11.4S159.47,313.33,159.47,313.33Z" style="fill:#92E3A9"></path><path d="M157.33,298.21s1-7.24,3.27-7.7-2.55,11.66-2.55,11.66-8.25-5.06-7.82-7.2S157.33,298.21,157.33,298.21Z" style="fill:#92E3A9"></path><path d="M154.72,287.23s1.19-6.11,2.69-6.05-1.71,9.76-1.71,9.76-7.53-4.07-6.69-5.75S154.72,287.23,154.72,287.23Z" style="fill:#92E3A9"></path><path d="M150.29,276.13c1.68-1.17,3.43,3.07,3.59,7.72C153.88,283.85,147.4,278.14,150.29,276.13Z" style="fill:#92E3A9"></path><path d="M155.7,362.15s7.7-10.67,16.12-11.21-5.68,15.26-16.75,13.73S138.66,347,143.7,344.27,155.7,362.15,155.7,362.15Z" style="fill:none;stroke:#263238;stroke-linecap:round;stroke-linejoin:round"></path><path d="M158.87,344.85s5.79-13.69,12.92-12.41-8.68,15.33-13.44,16.2S141,332.92,144.82,329.19,158.87,344.85,158.87,344.85Z" style="fill:none;stroke:#263238;stroke-linecap:round;stroke-linejoin:round"></path><path d="M160,327.81s4.43-11.18,8.6-11.52-2.23,10.19-8.68,14.94c0,0-15-5.41-11.57-12.22S160,327.81,160,327.81Z" style="fill:none;stroke:#263238;stroke-linecap:round;stroke-linejoin:round"></path><path d="M159.47,313.33s.6-12,4.84-10.9-2.58,13.81-4.51,15.46c0,0-11-7.1-9-11.4S159.47,313.33,159.47,313.33Z" style="fill:none;stroke:#263238;stroke-linecap:round;stroke-linejoin:round"></path><path d="M157.33,298.21s1-7.24,3.27-7.7-2.55,11.66-2.55,11.66-8.25-5.06-7.82-7.2S157.33,298.21,157.33,298.21Z" style="fill:none;stroke:#263238;stroke-linecap:round;stroke-linejoin:round"></path><path d="M154.72,287.23s1.19-6.11,2.69-6.05-1.71,9.76-1.71,9.76-7.53-4.07-6.69-5.75S154.72,287.23,154.72,287.23Z" style="fill:none;stroke:#263238;stroke-linecap:round;stroke-linejoin:round"></path><path d="M150.29,276.13c1.68-1.17,3.43,3.07,3.59,7.72C153.88,283.85,147.4,278.14,150.29,276.13Z" style="fill:none;stroke:#263238;stroke-linecap:round;stroke-linejoin:round"></path><path d="M225.5,438.93c-9.8,7.2,12.12-17.33,12.12-17.33s-6.27,1.7-10.31,6.34c0,0,6.5-17.9,1.32-20.24s-9.43,5.56-9.43,5.56-6.17-7.59-12-7.66c0,0,13.25-9.13,14.06-15.27.83-6.33-17.12,11.42-17.12,11.42s1.65-12.82-3.92-12.9-6.35,12.9-6.35,12.9-13,.86-19.9,6.88c0,0,1.65-10-3.77-13.3,0,0-6.06,9-4.73,13.31,0,0-5.26-10.31-13.53-7.82,0,0-9.22,10.22-5.94,15.36a17.86,17.86,0,0,0-16.48-4.57s-6.3,8.11-.8,12.81c0,0-2.27-1.16-11.72,3.91,0,0,37.62,24.69,62.48,26.57,54.55,4.12,57.78-9.07,57.78-9.07s-1.34-3.36-11.87,1.69c0,0,8.62-6.13,10.29-9.63C235.65,437.89,233.83,432.83,225.5,438.93Z" style="fill:#92E3A9"></path><path d="M225.5,438.93c-9.8,7.2,12.12-17.33,12.12-17.33s-6.27,1.7-10.31,6.34c0,0,6.5-17.9,1.32-20.24s-9.43,5.56-9.43,5.56-6.17-7.59-12-7.66c0,0,13.25-9.13,14.06-15.27.83-6.33-17.12,11.42-17.12,11.42s1.65-12.82-3.92-12.9-6.35,12.9-6.35,12.9-13,.86-19.9,6.88c0,0,1.65-10-3.77-13.3,0,0-6.06,9-4.73,13.31,0,0-5.26-10.31-13.53-7.82,0,0-9.22,10.22-5.94,15.36a17.86,17.86,0,0,0-16.48-4.57s-6.3,8.11-.8,12.81c0,0-2.27-1.16-11.72,3.91,0,0,37.62,24.69,62.48,26.57,54.55,4.12,57.78-9.07,57.78-9.07s-1.34-3.36-11.87,1.69c0,0,8.62-6.13,10.29-9.63C235.65,437.89,233.83,432.83,225.5,438.93Z" style="opacity:0.1"></path><path d="M237.23,445.83s-1.34-3.36-11.87,1.69c0,0,8.62-6.13,10.29-9.63,0,0-1.82-5.06-10.15,1-9.8,7.2,12.12-17.33,12.12-17.33s-6.27,1.7-10.31,6.34c0,0,6.5-17.9,1.32-20.24s-9.43,5.56-9.43,5.56-6.17-7.59-12-7.66c0,0,13.25-9.13,14.06-15.27.83-6.33-17.12,11.42-17.12,11.42s1.65-12.82-3.92-12.9-6.35,12.9-6.35,12.9-13,.86-19.9,6.88c0,0,1.65-10-3.77-13.3,0,0-6.06,9-4.73,13.31,0,0-5.26-10.31-13.53-7.82,0,0-9.22,10.22-5.94,15.36a17.86,17.86,0,0,0-16.48-4.57s-6.3,8.11-.8,12.81c0,0-2.27-1.16-11.72,3.91" style="fill:none;stroke:#263238;stroke-linecap:round;stroke-linejoin:round"></path><path d="M150.9,435c3.6-3.7,4.81-3.41,4.81-3.41-3.18-1.61-1.55-6.11-1.55-6.11a8.59,8.59,0,0,1,8,.11c-2.31-1.92,0-7.35,0-7.35,3.06-1.95,7.21,1.7,7.21,1.7-1.41-1.67-.51-6-.51-6,2.9.68,4.22,5,4.22,5,1.75-3.31,7.11-5.16,7.11-5.16s-2.54-5-.22-5.62,4.63,4.42,4.63,4.42,3.2-8.58,4.41-6.26-2.12,7.44-2.12,7.44c2.58-.67,7.42,1.71,7.42,1.71s-.42-3.75,2.58-3.42,5.78,8.91,5.78,8.91c.35-2.63,1.77-4.82,2.71-4.17,1.84,1.26.26,9.76.26,9.76,1.88-4.11,4.67-1.87,4.67-1.87.51,2-1.5,6.41-1.5,6.41,3.4-4.11,5.44-2.53,5.44-2.53s1.69,2.67-1.36,7.37c0,0,4.13-1.45,7.32-1a9.74,9.74,0,0,1-5.86,5.94s4.51,0,6.5,1.37-3.4,4.15-3.4,4.15l2.24,1.23s-28.48,14-59.77,2.9c-30.27-10.78-18.55-25.93-18.55-25.93s2.86,5.79,2.6,9.57c0,0,1.56-4.59,4.85-6.52S150.9,435,150.9,435Z" style="opacity:0.2"></path><path d="M201.44,445.36a72.46,72.46,0,0,1-19.6,6.17,66.47,66.47,0,0,1-31.62-1.91,230.08,230.08,0,0,1-49-22.73,208.54,208.54,0,0,1-25.47-18.13c-1.21-1-1.84-1.6-1.84-1.6,8.55-4.12,10.78-2.62,10.78-2.62-5.52-5.55-.35-12.9-.35-12.9,9-1.08,15.7,6.57,15.7,6.57-3.67-5.55,3.46-14.33,3.46-14.33,6.88-1.35,13.18,8.48,13.58,9.1-1.92-4.42,2-12.17,2-12.17C124.63,384.52,125,394,125,394c5.26-5.09,17.13-4.4,17.13-4.4s-2.31-12.15,2.77-11.47,6.9,12.69,6.9,12.69,11.72-14.71,12.8-9-8.85,13.17-8.85,13.17c5.64.78,14,9.41,14,9.41s1.48-7.72,7.41-4.61,6,22,6,22c2.4-4.75,8.2-5.8,8.2-5.8s-13.58,26.22-5.79,18.7c6.39-6.18,10.51.29,10.51.29-.3,4.11-7.13,10.59-7.13,10.59C198.42,440.81,201.44,445.36,201.44,445.36Z" style="fill:#92E3A9"></path><path d="M143.57,402.67c4.29,4.07,3.3,5.57,4.28,7.05-.8-1-2.7-2.88-5.41-1.45-3.62,1.93-9.93,7.41-9.93,7.41s-2.54-9.22-8.23-3.32c-5.5,5.71-6.19,10.67-6.23,11-.24-.53-6.63-15.68-12.64-7.09a22.41,22.41,0,0,0-4.21,10.63,208.54,208.54,0,0,1-25.47-18.13c7.53-.73,13.55,8.07,13.89,8.55,0-.58.53-9.23,4.91-9.82s11.23,2.65,11.23,2.65c.35-6.11,6.47-12.25,6.47-12.25a21.07,21.07,0,0,1,8.51,9.27c.94-6.9,10.78-11.18,10.78-11.18,2.74,4.33,3.46,12.3,3.46,12.3S141.79,401,143.57,402.67Z" style="opacity:0.2"></path><path d="M147.92,409.83a4.28,4.28,0,0,1,.27.38C148.12,410.13,148,410,147.92,409.83Z" style="opacity:0.2"></path><path d="M201.44,445.36a72.46,72.46,0,0,1-19.6,6.17c3.88-5.32,2.24-8.28,2.24-8.28a18.59,18.59,0,0,0-10.41,2.33A9.93,9.93,0,0,0,170.18,435c-8.46.47-13,4.8-13,4.8,1.11-8.53-7.12-12.54-7.12-12.54-8.72,1.55-12.69,9.36-12.95,9.87,2-6.92,6.95-9.26,6.95-9.26s-3.69-6.4.82-5.6,6.29,2.73,6.29,2.73,3.38-9.76,6.12-6S160,429.37,160,429.37s4.78-9.61,5.42-5.62a19.92,19.92,0,0,1,0,6.69,17.24,17.24,0,0,1,10.9-7.77,20.87,20.87,0,0,1,3.61,9c2.21-6.71,11.44-15.59,11.44-15.59s-13.58,26.22-5.79,18.7c6.39-6.18,10.51.29,10.51.29-.3,4.11-7.13,10.59-7.13,10.59C198.42,440.81,201.44,445.36,201.44,445.36Z" style="opacity:0.2"></path><path d="M201.44,445.36s-3-4.55-12.41.26c0,0,6.82-6.48,7.12-10.6,0,0-4.12-6.46-10.52-.28-7.78,7.51,5.79-18.69,5.79-18.69s-5.79,1-8.19,5.79c0,0-.08-18.89-6-22s-7.41,4.61-7.41,4.61-8.39-8.63-14-9.41c0,0,9.92-7.43,8.85-13.17s-12.81,9-12.81,9-1.8-12-6.89-12.69-2.77,11.47-2.77,11.47-11.87-.69-17.14,4.4c0,0-.39-9.51-5.91-13.22,0,0-4,7.8-2,12.2,0,0-6.5-10.52-13.6-9.13,0,0-7.13,8.78-3.46,14.33,0,0-6.73-7.65-15.7-6.57,0,0-5.17,7.35.35,12.9,0,0-2.23-1.5-10.78,2.63" style="fill:none;stroke:#263238;stroke-linecap:round;stroke-linejoin:round"></path><path d="M317.61,435.65a56,56,0,0,0,14.82,5.7,51.45,51.45,0,0,0,24.49,0,177.73,177.73,0,0,0,38.9-15.19,159.58,159.58,0,0,0,20.52-12.77c1-.73,1.5-1.14,1.5-1.14-6.41-3.59-8.19-2.54-8.19-2.54,4.52-4,.88-9.93.88-9.93-6.87-1.27-12.43,4.31-12.43,4.31,3.1-4.11-2-11.22-2-11.22-5.24-1.37-10.57,5.91-10.9,6.37,1.69-3.32-1-9.48-1-9.48-4.44,2.59-5.19,9.91-5.19,9.91-3.82-4.18-13-4.22-13-4.22s2.36-9.26-1.59-9-5.93,9.46-5.93,9.46-8.34-11.91-9.45-7.54,6.2,10.59,6.2,10.59c-4.39.34-11.28,6.59-11.28,6.59s-.77-6-5.49-3.91-5.69,16.67-5.69,16.67c-1.63-3.77-6-4.86-6-4.86s9.21,20.88,3.57,14.7c-4.64-5.07-8.12-.28-8.12-.28,0,3.19,5,8.52,5,8.52C320.15,432.28,317.61,435.65,317.61,435.65Z" style="fill:#92E3A9"></path><path d="M317.61,435.65a56,56,0,0,0,14.82,5.7,51.45,51.45,0,0,0,24.49,0,177.73,177.73,0,0,0,38.9-15.19,159.58,159.58,0,0,0,20.52-12.77c1-.73,1.5-1.14,1.5-1.14-6.41-3.59-8.19-2.54-8.19-2.54,4.52-4,.88-9.93.88-9.93-6.87-1.27-12.43,4.31-12.43,4.31,3.1-4.11-2-11.22-2-11.22-5.24-1.37-10.57,5.91-10.9,6.37,1.69-3.32-1-9.48-1-9.48-4.44,2.59-5.19,9.91-5.19,9.91-3.82-4.18-13-4.22-13-4.22s2.36-9.26-1.59-9-5.93,9.46-5.93,9.46-8.34-11.91-9.45-7.54,6.2,10.59,6.2,10.59c-4.39.34-11.28,6.59-11.28,6.59s-.77-6-5.49-3.91-5.69,16.67-5.69,16.67c-1.63-3.77-6-4.86-6-4.86s9.21,20.88,3.57,14.7c-4.64-5.07-8.12-.28-8.12-.28,0,3.19,5,8.52,5,8.52C320.15,432.28,317.61,435.65,317.61,435.65Z" style="opacity:0.2"></path><path d="M364.29,405.49c-3.5,2.93-2.81,4.14-3.63,5.23a3.16,3.16,0,0,1,4.24-.86,59.87,59.87,0,0,1,7.3,6.19s2.41-7,6.51-2.17,4.27,8.53,4.28,8.78c.21-.4,5.87-11.78,10.09-4.87a17.37,17.37,0,0,1,2.74,8.41,159.58,159.58,0,0,0,20.52-12.77c-5.77-.92-10.84,5.58-11.13,5.94,0-.46,0-7.15-3.31-7.82s-8.79,1.51-8.79,1.51c0-4.73-4.41-9.76-4.41-9.76a16.28,16.28,0,0,0-7,6.75c-.4-5.38-7.79-9.15-7.79-9.15-2.32,3.21-3.25,9.32-3.25,9.32S365.75,404.27,364.29,405.49Z" style="opacity:0.2"></path><path d="M360.59,410.8c-.1.11-.17.22-.22.28A3.08,3.08,0,0,0,360.59,410.8Z" style="opacity:0.2"></path><path d="M317.61,435.65a56,56,0,0,0,14.82,5.7c-2.74-4.29-1.33-6.5-1.33-6.5a14.4,14.4,0,0,1,7.92,2.29,7.67,7.67,0,0,1,3.2-8,16.56,16.56,0,0,1,9.79,4.33c-.45-6.64,6.09-9.34,6.09-9.34,6.65,1.61,9.34,7.83,9.52,8.24a11.47,11.47,0,0,0-4.92-7.48s3.16-4.76-.37-4.36-5,1.8-5,1.8-2.15-7.69-4.44-4.89-2.59,7.84-2.59,7.84-3.22-7.64-3.91-4.6a15.43,15.43,0,0,0-.36,5.16,13.32,13.32,0,0,0-8-6.52,16.12,16.12,0,0,0-3.22,6.75c-1.38-5.29-8.07-12.58-8.07-12.58s9.21,20.88,3.57,14.7c-4.64-5.07-8.12-.28-8.12-.28,0,3.19,5,8.52,5,8.52C320.15,432.28,317.61,435.65,317.61,435.65Z" style="opacity:0.2"></path><path d="M317.61,435.64s2.54-3.36,9.56.81c0,0-5-5.33-5-8.52,0,0,3.48-4.79,8.12.28,5.64,6.17-3.57-14.7-3.57-14.7s4.42,1.09,6,4.87c0,0,1-14.57,5.69-16.68s5.5,3.91,5.5,3.91,6.88-6.25,11.27-6.59c0,0-7.3-6.2-6.19-10.58s9.44,7.53,9.44,7.53,2-9.17,5.93-9.46,1.59,9,1.59,9,9.19,0,13,4.22c0,0,.76-7.32,5.2-9.92,0,0,2.71,6.21,1,9.51,0,0,5.51-7.81,10.92-6.39,0,0,5.08,7.11,2,11.22,0,0,5.56-5.58,12.43-4.31,0,0,3.64,5.91-.89,9.93,0,0,1.79-1.05,8.19,2.54" style="fill:none;stroke:#263238;stroke-linecap:round;stroke-linejoin:round"></path><path d="M416.19,369.33c-10-4.08-22-18.4-13.76-34.87s-2.5-26.11,2.53-37.85,17.41-4.34,21.6,10.17,4.93,21.07,9.27,27.26C446.19,348.82,434.16,376.68,416.19,369.33Z" style="fill:#92E3A9"></path><g style="clip-path:url(#freepik--clip-path-6--inject-2)"><path d="M422,370.54a15.41,15.41,0,0,1-5.78-1.21c-10-4.08-22-18.4-13.76-34.87s-2.5-26.11,2.53-37.85c1.59-3.71,3.91-5.51,6.47-5.77,5.56-.59,12.26,6,15.13,15.94,4.2,14.51,4.93,21.07,9.27,27.26C445,347.17,436.57,370.62,422,370.54Z" style="opacity:0.2"></path><path d="M422,370.54c3.46-47.77-6.65-72.24-10.54-79.7,5.56-.59,12.26,6,15.13,15.94,4.2,14.51,4.93,21.07,9.27,27.26C445,347.17,436.57,370.62,422,370.54Z" style="opacity:0.2"></path></g><path d="M416.19,369.33c-10-4.08-22-18.4-13.76-34.87s-2.5-26.11,2.53-37.85,17.41-4.34,21.6,10.17,4.93,21.07,9.27,27.26C446.19,348.82,434.16,376.68,416.19,369.33Z" style="fill:none;stroke:#263238;stroke-linecap:round;stroke-linejoin:round"></path><path d="M415.37,298.94c8.29,25.46,13,75-3.45,110.91" style="fill:none;stroke:#263238;stroke-linecap:round;stroke-linejoin:round"></path><path d="M410,315s8,5.65,11.25,11.27c0,0,4.74-8.27,5.64-11.76" style="fill:none;stroke:#263238;stroke-linecap:round;stroke-linejoin:round"></path><path d="M407.08,334.84s11.42,4.83,15.57,13.2c0,0,7.58-8.46,9.09-13.53" style="fill:none;stroke:#263238;stroke-linecap:round;stroke-linejoin:round"></path><path d="M407,351.26s11.55,7,15.53,12.78c0,0,8.21-5.77,11.74-10.76" style="fill:none;stroke:#263238;stroke-linecap:round;stroke-linejoin:round"></path><path d="M390.73,377.06c-13.71-.27-34.61-11.78-32.39-35.16s-15-29.9-14.4-46.18,18.72-13.17,30.38,2.16,15.55,22.8,23.55,28.17C417,338.87,415.48,377.54,390.73,377.06Z" style="fill:#92E3A9"></path><g style="clip-path:url(#freepik--clip-path-7--inject-2)"><path d="M398.16,375.84c-17.84-58.41-41.11-82.87-49.17-90,6.34-3.26,17.35,1.52,25.32,12,11.67,15.33,15.55,22.79,23.56,28.16C414.85,337.44,415.57,369.23,398.16,375.84Z" style="opacity:0.2"></path></g><path d="M390.73,377.06c-13.71-.27-34.61-11.78-32.39-35.16s-15-29.9-14.4-46.18,18.72-13.17,30.38,2.16,15.55,22.8,23.55,28.17C417,338.87,415.48,377.54,390.73,377.06Z" style="fill:none;stroke:#263238;stroke-linecap:round;stroke-linejoin:round"></path><path d="M357.39,293.7c21.57,26.48,50,83.21,46.89,133.52" style="fill:none;stroke:#263238;stroke-linecap:round;stroke-linejoin:round"></path><path d="M358.38,315.32s12.11,3,18.56,8.23c0,0,1.83-12,1.3-16.58" style="fill:none;stroke:#263238;stroke-linecap:round;stroke-linejoin:round"></path><path d="M364,340.22s15.8.49,24.59,8.55c0,0,5.13-13.55,4.59-20.28" style="fill:none;stroke:#263238;stroke-linecap:round;stroke-linejoin:round"></path><path d="M371.45,359.8s17,3.07,24.35,8.07c0,0,7.11-10.63,9-18.19" style="fill:none;stroke:#263238;stroke-linecap:round;stroke-linejoin:round"></path><path d="M374.87,396.62c-8.19,4.74-24.63,5.41-31.68-9.19s-19.52-12.3-25-22.12,6.34-14.46,18.7-9.57,17.33,7.91,24,8.22C376.74,364.69,389.66,388.07,374.87,396.62Z" style="fill:#92E3A9"></path><g style="clip-path:url(#freepik--clip-path-8--inject-2)"><path d="M378.83,393.25a13.74,13.74,0,0,1-3.95,3.37c-8.2,4.74-24.65,5.41-31.69-9.18s-19.52-12.31-25-22.13c-1.73-3.1-1.73-5.68-.54-7.61,2.58-4.19,10.78-5.3,19.24-1.95,12.37,4.88,17.33,7.9,24,8.21C375,364.62,386.74,383.12,378.83,393.25Z" style="opacity:0.4"></path><path d="M378.83,393.25C347.43,365.14,325,359,317.66,357.7c2.58-4.19,10.78-5.3,19.24-1.95,12.37,4.88,17.33,7.9,24,8.21C375,364.62,386.74,383.12,378.83,393.25Z" style="opacity:0.2"></path></g><path d="M374.87,396.62c-8.19,4.74-24.63,5.41-31.68-9.19s-19.52-12.3-25-22.12,6.34-14.46,18.7-9.57,17.33,7.91,24,8.22C376.74,364.69,389.66,388.07,374.87,396.62Z" style="fill:none;stroke:#263238;stroke-linecap:round;stroke-linejoin:round"></path><path d="M325.42,359.32c22.19,7.92,59.21,31.28,75.37,62.08" style="fill:none;stroke:#263238;stroke-linecap:round;stroke-linejoin:round"></path><path d="M333.72,371.73s8.24-2.53,13.9-1.77c0,0-3.21-7.76-5.15-10.26" style="fill:none;stroke:#263238;stroke-linecap:round;stroke-linejoin:round"></path><path d="M346,384.41s9.5-5.36,17.57-3.74c0,0-1.81-9.83-4.53-13.61" style="fill:none;stroke:#263238;stroke-linecap:round;stroke-linejoin:round"></path><path d="M357.33,393.32s11.12-4.25,17.25-3.93c0,0,.4-8.82-1.17-14" style="fill:none;stroke:#263238;stroke-linecap:round;stroke-linejoin:round"></path><path d="M443.55,394.83a56,56,0,0,1-7.6,13.95,51.29,51.29,0,0,1-18.62,15.9,177.92,177.92,0,0,1-39.47,13.65A160.54,160.54,0,0,1,354,441.9c-1.22.08-1.88.1-1.88.1,2.55-6.88,4.59-7.24,4.59-7.24-6.05-.13-7.11-7-7.11-7,4.41-5.42,12.26-4.77,12.26-4.77-5-1.12-5.76-9.83-5.76-9.83,3.1-4.44,11.88-2.35,12.43-2.22-3.44-1.43-5.38-7.87-5.38-7.87,5.06-.9,10.38,4.18,10.38,4.18.2-5.66,7.17-11.64,7.17-11.64s-7.8-5.52-4.61-7.87,10.65,3.36,10.65,3.36-1.37-14.47,2.31-11.86,2.14,12.08,2.14,12.08C394.71,388.74,404,389,404,389s-3.32-5.09,1.65-6.54,15.14,9,15.14,9c-1.21-3.93,1.45-7.62,1.45-7.62s6.51,21.87,6.81,13.51c.24-6.87,6-5.48,6-5.48,2,2.45,1.72,9.72,1.72,9.72C439.43,393.92,443.55,394.83,443.55,394.83Z" style="fill:#92E3A9"></path><path d="M388.45,402.12c4.56,0,4.82,1.33,6.16,1.63a3.17,3.17,0,0,0-3.79,2.09,60.15,60.15,0,0,0-1.55,9.45s-6.36-3.76-6.36,2.57c0,6.13,2.28,9.26,2.43,9.46-.42-.17-12.1-5.17-10.84,2.83a17.44,17.44,0,0,0,3.36,8.18A160.54,160.54,0,0,1,354,441.9c3.8-4.44,11.87-2.78,12.32-2.69-.29-.35-4.66-5.42-2.54-8.1s7.67-4.55,7.67-4.55c-3.08-3.59-3-10.29-3-10.29a16.28,16.28,0,0,1,9.71.6c-3.18-4.35,0-12,0-12,3.85.94,8.52,5,8.52,5S386.54,402.14,388.45,402.12Z" style="opacity:0.2"></path><path d="M394.71,403.77l.35.07Z" style="opacity:0.2"></path><path d="M443.55,394.83a56,56,0,0,1-7.6,13.95c-.69-5-3.19-5.81-3.19-5.81a14.37,14.37,0,0,0-4.55,6.88,7.67,7.67,0,0,0-7.61-4,16.57,16.57,0,0,0-4.65,9.64c-4-5.34-10.69-3.16-10.69-3.16-4,5.54-2,12-1.91,12.44a11.48,11.48,0,0,1-1.1-8.88s-5.49-1.58-2.55-3.56,5-1.85,5-1.85-3.35-7.25.21-6.6,7.05,4.29,7.05,4.29-2.5-7.91,0-6a15.51,15.51,0,0,1,3.62,3.7,13.32,13.32,0,0,1,1.89-10.17,16.07,16.07,0,0,1,6.82,3.05c-2.37-4.92-2-14.81-2-14.81s6.51,21.87,6.81,13.51c.24-6.87,6-5.48,6-5.48,2,2.45,1.72,9.72,1.72,9.72C439.43,393.92,443.55,394.83,443.55,394.83Z" style="opacity:0.2"></path><path d="M443.55,394.83s-4.12-.91-6.77,6.81c0,0,.32-7.27-1.72-9.72,0,0-5.76-1.39-6,5.48-.3,8.36-6.81-13.51-6.81-13.51s-2.66,3.69-1.45,7.62c0,0-10.18-10.47-15.14-9S404,389,404,389s-9.3-.3-12.86,2.29c0,0,1.54-9.46-2.14-12.08s-2.31,11.86-2.31,11.86-7.45-5.7-10.65-3.36,4.61,7.87,4.61,7.87-7,6-7.17,11.64c0,0-5.32-5.08-10.38-4.18,0,0,1.95,6.48,5.41,7.88,0,0-9.26-2.38-12.46,2.21,0,0,.74,8.71,5.76,9.83,0,0-7.85-.65-12.26,4.77,0,0,1.06,6.86,7.11,7,0,0-2,.36-4.59,7.24" style="fill:none;stroke:#263238;stroke-linecap:round;stroke-linejoin:round"></path></g></svg>